<svg width="69" height="69" viewBox="0 0 69 69" fill="none" xmlns="http://www.w3.org/2000/svg"><g clip-path="url(#a)"><path d="M67.374 22.082L35.107.186a1.08 1.08 0 0 0-1.214 0L1.626 22.082a1.08 1.08 0 0 0-.474.894V67.92c0 .596.484 1.08 1.08 1.08h64.535a1.08 1.08 0 0 0 1.08-1.08V22.976a1.08 1.08 0 0 0-.473-.894zM26.505 66.84H14.837V55.171h2.449v5.834c0 .597.484 1.08 1.08 1.08h4.61a1.08 1.08 0 0 0 1.08-1.08v-5.834h2.45V66.84zM12.532 27.658v-2.45h43.936v2.45H12.532zm6.915 32.267V55.17h2.449v4.754h-2.45zm7.058-6.914H14.837v-11.67h2.449v5.834c0 .597.483 1.08 1.08 1.08h4.61a1.08 1.08 0 0 0 1.08-1.08v-5.834h2.45V53.01zm-7.058-6.915v-4.753h2.449v4.753h-2.45zM40.334 66.84H28.666V55.171h2.449v5.834c0 .597.484 1.08 1.08 1.08h4.61a1.08 1.08 0 0 0 1.08-1.08v-5.834h2.45V66.84h-.001zm-7.059-6.914V55.17h2.45v4.754h-2.45zm32.412 6.914h-9.363V43.72a1.08 1.08 0 1 0-2.161 0v23.12H42.495V54.091a1.08 1.08 0 0 0-1.08-1.08h-12.75v-12.75a1.08 1.08 0 0 0-1.08-1.08H14.837v-9.364h39.326v9.292a1.08 1.08 0 0 0 2.16 0v-9.292h1.225a1.08 1.08 0 0 0 1.08-1.08v-4.61a1.08 1.08 0 0 0-1.08-1.08H11.452a1.08 1.08 0 0 0-1.08 1.08v4.61c0 .597.483 1.08 1.08 1.08h1.225V66.84H3.313V23.55L34.5 2.386 65.687 23.55v43.29z" fill="url(#b)"/><path d="M39.11 9.22h-9.22a1.08 1.08 0 0 0 0 2.16h9.22a1.08 1.08 0 1 0 0-2.16z" fill="url(#c)"/><path d="M39.11 13.829h-9.22a1.08 1.08 0 1 0 0 2.16h9.22a1.08 1.08 0 1 0 0-2.16z" fill="url(#d)"/><path d="M39.11 18.438h-9.22a1.08 1.08 0 1 0 0 2.161h9.22a1.08 1.08 0 1 0 0-2.16z" fill="url(#e)"/><path d="M22.976 49.553h-4.61a1.08 1.08 0 0 0 0 2.161h4.61a1.08 1.08 0 0 0 0-2.16z" fill="url(#f)"/><path d="M22.976 63.382h-4.61a1.08 1.08 0 0 0 0 2.16h4.61a1.08 1.08 0 0 0 0-2.16z" fill="url(#g)"/><path d="M36.805 63.382h-4.61a1.08 1.08 0 0 0 0 2.16h4.61a1.08 1.08 0 1 0 0-2.16z" fill="url(#h)"/></g><defs><linearGradient id="b" x1="67.848" y1="-55.2" x2=".921" y2="-55.119" gradientUnits="userSpaceOnUse"><stop stop-color="#F59E27"/><stop offset="1" stop-color="#FC5829"/></linearGradient><linearGradient id="c" x1="40.19" y1="7.491" x2="28.771" y2="7.566" gradientUnits="userSpaceOnUse"><stop stop-color="#F59E27"/><stop offset="1" stop-color="#FC5829"/></linearGradient><linearGradient id="d" x1="40.19" y1="12.1" x2="28.771" y2="12.176" gradientUnits="userSpaceOnUse"><stop stop-color="#F59E27"/><stop offset="1" stop-color="#FC5829"/></linearGradient><linearGradient id="e" x1="40.19" y1="16.71" x2="28.771" y2="16.785" gradientUnits="userSpaceOnUse"><stop stop-color="#F59E27"/><stop offset="1" stop-color="#FC5829"/></linearGradient><linearGradient id="f" x1="24.056" y1="47.825" x2="17.263" y2="47.852" gradientUnits="userSpaceOnUse"><stop stop-color="#F59E27"/><stop offset="1" stop-color="#FC5829"/></linearGradient><linearGradient id="g" x1="24.056" y1="61.653" x2="17.263" y2="61.68" gradientUnits="userSpaceOnUse"><stop stop-color="#F59E27"/><stop offset="1" stop-color="#FC5829"/></linearGradient><linearGradient id="h" x1="37.885" y1="61.653" x2="31.091" y2="61.68" gradientUnits="userSpaceOnUse"><stop stop-color="#F59E27"/><stop offset="1" stop-color="#FC5829"/></linearGradient><clipPath id="a"><path fill="#fff" d="M0 0h69v69H0z"/></clipPath></defs></svg>