<svg width="69" height="44" viewBox="0 0 69 44" fill="none" xmlns="http://www.w3.org/2000/svg"><path d="M63.985 18.235l-1.76-7.043c.48-.103.842-.53.842-1.042V9.015a4.477 4.477 0 0 0-4.472-4.472h-8.02V2.2c0-1.213-.988-2.2-2.201-2.2H7.489c-1.214 0-2.2.987-2.2 2.2v19.307a1.065 1.065 0 0 0 2.129 0V2.2a.07.07 0 0 1 .07-.07h40.886a.07.07 0 0 1 .07.07v19.308a1.065 1.065 0 0 0 2.13 0V20.3H63.14a3.484 3.484 0 0 1 3.309 2.413h-3.311c-.588 0-1.065.477-1.065 1.065v2.271a3.34 3.34 0 0 0 3.336 3.336h1.207v4.685h-2.784c-.915-2.64-3.425-4.543-6.373-4.543-2.948 0-5.458 1.902-6.372 4.543h-.513v-8.02a1.065 1.065 0 1 0-2.13 0v8.02h-22.09c-.915-2.64-3.425-4.543-6.373-4.543-2.947 0-5.458 1.902-6.372 4.543h-6.12a.071.071 0 0 1-.071-.07v-2.343h4.613a1.065 1.065 0 1 0 0-2.129H1.811a1.065 1.065 0 0 0 0 2.13h3.477V34c0 1.213.987 2.2 2.2 2.2h5.752l-.002.071a6.75 6.75 0 0 0 6.743 6.743 6.75 6.75 0 0 0 6.744-6.743l-.002-.07h23.995l-.002.07a6.75 6.75 0 0 0 6.743 6.743 6.75 6.75 0 0 0 6.743-6.743l-.001-.07h3.48c.588 0 1.065-.477 1.065-1.065V23.779a5.616 5.616 0 0 0-4.76-5.544zM50.575 6.672h8.02a2.345 2.345 0 0 1 2.343 2.343v.07H50.574V6.673zm0 11.5v-6.957h9.46l1.74 6.956h-11.2zM19.98 40.884a4.619 4.619 0 0 1-4.613-4.613 4.619 4.619 0 0 1 4.613-4.614 4.619 4.619 0 0 1 4.614 4.614 4.619 4.619 0 0 1-4.614 4.613zm37.479 0a4.619 4.619 0 0 1-4.614-4.613 4.619 4.619 0 0 1 4.614-4.614 4.619 4.619 0 0 1 4.613 4.614 4.619 4.619 0 0 1-4.613 4.613zm9.156-13.628H65.41a1.208 1.208 0 0 1-1.206-1.207v-1.207h2.413v2.414z" fill="url(#a)"/><path d="M19.981 34.071c-1.213 0-2.2.987-2.2 2.2 0 1.214.987 2.201 2.2 2.201 1.214 0 2.2-.987 2.2-2.2 0-1.214-.986-2.2-2.2-2.2z" fill="url(#b)"/><path d="M57.46 34.071c-1.214 0-2.2.987-2.2 2.2 0 1.214.986 2.201 2.2 2.201 1.213 0 2.2-.987 2.2-2.2 0-1.214-.987-2.2-2.2-2.2z" fill="url(#c)"/><path d="M44.967 29.528h-15.9a1.065 1.065 0 0 0 0 2.13h15.9a1.065 1.065 0 0 0 0-2.13z" fill="url(#d)"/><path d="M17.71 24.986H4.082a1.065 1.065 0 0 0 0 2.13H17.71a1.065 1.065 0 0 0 0-2.13z" fill="url(#e)"/><path d="M37.77 10.533a1.065 1.065 0 0 0-1.506 0l-9.468 9.469-4.926-4.926a1.064 1.064 0 1 0-1.506 1.506l5.679 5.678a1.06 1.06 0 0 0 1.506 0l10.22-10.221a1.065 1.065 0 0 0 0-1.506z" fill="url(#f)"/><defs><linearGradient id="a" x1="68.746" y1="-34.412" x2=".51" y2="-34.276" gradientUnits="userSpaceOnUse"><stop stop-color="#F59E27"/><stop offset="1" stop-color="#FC5829"/></linearGradient><linearGradient id="b" x1="22.182" y1="30.55" x2="17.766" y2="30.556" gradientUnits="userSpaceOnUse"><stop stop-color="#F59E27"/><stop offset="1" stop-color="#FC5829"/></linearGradient><linearGradient id="c" x1="59.66" y1="30.55" x2="55.244" y2="30.556" gradientUnits="userSpaceOnUse"><stop stop-color="#F59E27"/><stop offset="1" stop-color="#FC5829"/></linearGradient><linearGradient id="d" x1="46.032" y1="27.825" x2="27.942" y2="28.018" gradientUnits="userSpaceOnUse"><stop stop-color="#F59E27"/><stop offset="1" stop-color="#FC5829"/></linearGradient><linearGradient id="e" x1="18.775" y1="23.282" x2="2.964" y2="23.429" gradientUnits="userSpaceOnUse"><stop stop-color="#F59E27"/><stop offset="1" stop-color="#FC5829"/></linearGradient><linearGradient id="f" x1="38.082" y1=".341" x2="19.99" y2=".374" gradientUnits="userSpaceOnUse"><stop stop-color="#F59E27"/><stop offset="1" stop-color="#FC5829"/></linearGradient></defs></svg>