<svg width="35" height="35" fill="none" xmlns="http://www.w3.org/2000/svg"><circle cx="17.5" cy="17.5" r="17" fill="#fff" stroke="#44220F"/><g clip-path="url(#clip0)" fill="#44220F"><path d="M20.463 17.281l-3.535-1.934a.644.644 0 0 0-.643.01.644.644 0 0 0-.318.56v3.835c0 .23.118.438.316.557a.647.647 0 0 0 .64.014l3.536-1.9a.65.65 0 0 0 .004-1.142zm-3.558 1.988v-2.866l2.642 1.445-2.642 1.421z"/><path d="M25.882 14.798v-.008c-.014-.128-.149-1.274-.706-1.856-.643-.686-1.373-.77-1.724-.809l-.08-.01-.028-.002c-2.115-.154-5.31-.175-5.341-.175h-.006c-.032 0-3.226.02-5.36.175l-.029.003-.075.008c-.347.04-1.069.124-1.714.834-.53.576-.684 1.697-.7 1.823l-.001.017c-.005.053-.118 1.33-.118 2.61v1.197c0 1.28.113 2.557.118 2.61v.008c.014.127.149 1.252.703 1.835.605.662 1.37.75 1.782.797.065.007.121.013.16.02l.037.005c1.22.117 5.05.174 5.212.176h.01c.032 0 3.227-.021 5.342-.175l.028-.003.09-.01c.344-.037 1.062-.113 1.699-.813.53-.577.684-1.698.7-1.823l.001-.017c.005-.053.118-1.33.118-2.61v-1.197c0-1.28-.113-2.557-.118-2.61zm-.82 3.807a32.8 32.8 0 0 1-.113 2.518c-.04.31-.202 1.018-.46 1.3-.398.438-.808.481-1.107.513a5.1 5.1 0 0 0-.1.01c-2.045.149-5.12.172-5.26.172-.16-.002-3.933-.06-5.117-.17a4.102 4.102 0 0 0-.195-.025c-.35-.04-.83-.095-1.2-.5l-.008-.01c-.254-.265-.41-.928-.45-1.286a32.723 32.723 0 0 1-.114-2.522v-1.197c0-1.184.103-2.404.113-2.518.047-.364.212-1.03.46-1.3.41-.451.844-.501 1.13-.534l.076-.01c2.076-.148 5.172-.17 5.283-.17.111 0 3.206.022 5.263.17l.083.01c.294.034.74.085 1.148.52l.004.005c.254.264.41.939.45 1.304.008.08.114 1.318.114 2.523v1.197z"/></g><defs><clipPath id="clip0"><path fill="#fff" transform="translate(10 10)" d="M0 0h16v16H0z"/></clipPath></defs></svg>