<svg width="157" height="124" fill="none" xmlns="http://www.w3.org/2000/svg"><rect y="74.879" width="148.517" height="56" rx="28" transform="rotate(-30 0 74.88)" fill="url(#a)"/><path d="M96.8 50.794c0-1.18.275-2.344.802-3.399l4.265-8.528H85.4l-4.265 8.528a7.609 7.609 0 0 0-.802 3.399v10.873h-7.6V50.794c0-1.18.275-2.344.802-3.399l4.265-8.528H61.333l-4.264 8.528a7.608 7.608 0 0 0-.802 3.399v53.939H96.8v-53.94zM81.908 87.308c-4.453 4.45-10.468 5.654-13.436 2.686-2.968-2.967-1.764-8.983 2.687-13.435 4.45-4.453 10.468-5.654 13.435-2.687 2.968 2.968 1.765 8.984-2.686 13.436z" fill="#C49A6C"/><path d="M96.8 50.794v53.939h10.133v-53.94a7.606 7.606 0 0 0-.801-3.398l-4.265-8.528-4.265 8.528a7.608 7.608 0 0 0-.802 3.399z" fill="#A97C50"/><path d="M61.333 31.267H77.8v7.6H61.333v-7.6zm24.067 0h16.467v7.6H85.4v-7.6z" fill="#C49A6C"/><path d="M73.535 47.395a7.608 7.608 0 0 0-.802 3.399v10.873h7.6V50.794c0-1.18.275-2.343.802-3.399l4.265-8.528v-7.6h-7.6v7.6l-4.265 8.528z" fill="#F59E27"/><path d="M68.472 89.994c2.968 2.968 8.983 1.765 13.436-2.686 4.452-4.451 5.654-10.468 2.686-13.436L68.472 89.994z" fill="#754C29"/><path d="M71.159 76.559c-4.451 4.452-5.655 10.468-2.687 13.435l16.122-16.122c-2.967-2.968-8.983-1.764-13.435 2.687z" fill="#754C29"/><path d="M107.264 46.829l-4.131-8.261v-7.301c0-.7-.567-1.267-1.266-1.267H61.333c-.7 0-1.266.567-1.266 1.267v7.3l-4.13 8.262A8.903 8.903 0 0 0 55 50.795v53.938c0 .7.567 1.267 1.267 1.267h50.666c.7 0 1.267-.567 1.267-1.267V50.795a8.906 8.906 0 0 0-.936-3.966zM100.6 37.6H86.667v-5.067H100.6V37.6zm-16.467.968l-4.13 8.261a8.902 8.902 0 0 0-.936 3.966V60.4H74v-9.605a6.38 6.38 0 0 1 .669-2.834l4.271-8.528c.008-.015.009-.032.017-.047.007-.015.017-.056.029-.084a1.27 1.27 0 0 0 .077-.38c0-.017.01-.031.01-.049v-6.34h5.067l-.007 6.035zM62.6 32.533h13.933V37.6H62.6v-5.067zM96.47 46.83a8.903 8.903 0 0 0-.937 3.966v52.672h-38V50.795a6.38 6.38 0 0 1 .67-2.834l3.913-7.828h13.635l-3.348 6.696a8.902 8.902 0 0 0-.936 3.966v10.872c0 .7.567 1.266 1.266 1.266h7.6c.7 0 1.267-.567 1.267-1.266V50.795a6.38 6.38 0 0 1 .669-2.834l3.914-7.828h13.634L96.47 46.83zm9.197 56.638h-7.6V50.795a6.37 6.37 0 0 1 .669-2.834l3.131-6.262 3.131 6.262c.438.88.667 1.85.669 2.834v52.672z" fill="#44220F"/><path d="M78.18 71.192a15.92 15.92 0 0 0-7.922 4.471 15.92 15.92 0 0 0-4.466 7.917 7.813 7.813 0 0 0 1.785 7.305 7.165 7.165 0 0 0 5.203 2.001c.708 0 1.413-.071 2.107-.211a15.92 15.92 0 0 0 7.921-4.472 15.92 15.92 0 0 0 4.467-7.916 7.813 7.813 0 0 0-1.785-7.305 7.805 7.805 0 0 0-7.31-1.79zm-9.905 12.895a13.402 13.402 0 0 1 3.78-6.627 13.403 13.403 0 0 1 6.632-3.785 8.216 8.216 0 0 1 1.593-.165 4.97 4.97 0 0 1 2.876.822 9.114 9.114 0 0 1-1.803 1.09 12.792 12.792 0 0 0-5.953 5.953 8.899 8.899 0 0 1-1.99 2.808 8.933 8.933 0 0 1-2.81 1.991c-.78.362-1.52.809-2.203 1.333a6.614 6.614 0 0 1-.122-3.42zm16.517-4.307a13.402 13.402 0 0 1-3.78 6.627 13.403 13.403 0 0 1-6.632 3.785 5.8 5.8 0 0 1-4.476-.651 9.143 9.143 0 0 1 1.81-1.098 11.458 11.458 0 0 0 3.48-2.471 11.427 11.427 0 0 0 2.48-3.48 10.25 10.25 0 0 1 4.797-4.798c.78-.363 1.517-.81 2.198-1.334.34 1.11.383 2.289.123 3.42z" fill="#44220F"/><defs><linearGradient id="a" x1="1.877" y1="107.012" x2="143.815" y2="101.991" gradientUnits="userSpaceOnUse"><stop stop-color="#F59E27"/><stop offset=".476" stop-color="#F59E27" stop-opacity=".622"/><stop offset=".856" stop-color="#F59E27" stop-opacity=".078"/><stop offset="1" stop-color="#F59E27" stop-opacity="0"/></linearGradient></defs></svg>