<svg width="157" height="124" viewBox="0 0 157 124" fill="none" xmlns="http://www.w3.org/2000/svg"><rect y="74.879" width="148.517" height="56" rx="28" transform="rotate(-30 0 74.88)" fill="url(#a)"/><g clip-path="url(#b)"><path d="M93.019 51.719a.958.958 0 0 0-1.405-.848l-1.196.628a1.752 1.752 0 0 1-2.19-.465l-.19-.239a3.116 3.116 0 0 0-2.063-1.161l-2.598-.321a.697.697 0 0 1-.501-1.069l1.546-2.412a2.554 2.554 0 0 0-.087-2.886l-.406-.556a2.067 2.067 0 0 0-1.67-.849H64.163c-1.2 0-2.173.973-2.173 2.174v22.052l31.029 3.634V51.72z" fill="#A98063"/><path d="M92.972 77.164a3.316 3.316 0 0 1-2.772-.162L81 72.089a4.766 4.766 0 0 0-3.247-.455l-6.047 1.3a4.044 4.044 0 0 1-3.498-.898l-7.384-6.405v33.317h33.362v-22.26l-1.213.476zM74.621 93.615l2.023-5.802a.326.326 0 0 0-.066-.326l-4.385-4.846a1.98 1.98 0 0 1 .335-2.951l5.613-3.916a.326.326 0 0 1 .504.342l-1.425 6.117c-.03.13.022.266.131.342l5.412 3.767c.17.118.188.365.036.506l-7.648 7.113c-.25.232-.642-.025-.53-.346z" fill="#F59E27"/><path d="M59.406 102.099c-.308.685.15 1.469.898 1.538l5.736.528c7.627.702 15.301.702 22.928 0l5.736-.528a1.094 1.094 0 0 0 .898-1.538l-1.417-3.151H60.823l-1.417 3.151zm8.801-30.064a4.044 4.044 0 0 0 3.498.9l6.047-1.3a4.766 4.766 0 0 1 3.247.454l9.201 4.913a3.318 3.318 0 0 0 2.772.162l1.213-.476.279-.11a1.982 1.982 0 0 0 1.167-2.439l-1.446-4.6-1.166-.138-31.03-3.633-1.166-.137 7.384 6.404z" fill="#D7D7E6"/><path d="M91.71 46.332c.549.256 1.255.271 1.713-.126.741-.643.788-2.748.755-3.658-.045-1.238-1.117-1.93-2.237-2.166-1.487-.313-4.047.342-3.528 2.349.314 1.212 2.173 3.077 3.297 3.601z" fill="#A98063"/><path d="M82.799 86.848a.326.326 0 0 0-.036-.506l-5.412-3.767a.326.326 0 0 1-.131-.342l1.425-6.118a.326.326 0 0 0-.504-.341l-5.613 3.916a1.98 1.98 0 0 0-.335 2.95l4.385 4.847c.08.088.106.213.066.326l-2.023 5.802c-.112.321.28.578.53.346l7.648-7.113z" fill="#FF5A5A"/><path d="M96.88 73.747l-1.447-4.6-.005-.015a1.418 1.418 0 0 0-.062-.156l-.004-.01a1.236 1.236 0 0 0-.104-.175 1.292 1.292 0 0 0-.224-.247l-.023-.02a1.28 1.28 0 0 0-.297-.182l-.015-.007a1.341 1.341 0 0 0-.157-.055l-.036-.01a1.32 1.32 0 0 0-.168-.031l-.01-.002V51.72a2.25 2.25 0 0 0-1.096-1.941 2.249 2.249 0 0 0-2.227-.066l-1.195.628c-.19.1-.423.05-.555-.117l-.19-.24a4.396 4.396 0 0 0-2.93-1.648l-1.634-.202 1.023-1.595a3.888 3.888 0 0 0-.132-4.365l-.406-.556a3.387 3.387 0 0 0-2.727-1.385H64.163a3.486 3.486 0 0 0-3.482 3.482V64.33a1.268 1.268 0 0 0-.1.015l-.023.004a1.239 1.239 0 0 0-.114.03l-.044.014a1.432 1.432 0 0 0-.192.083l-.044.024c-.03.018-.06.037-.088.057-.013.008-.025.018-.038.027a1.214 1.214 0 0 0-.064.052l-.021.016-.012.012a1.15 1.15 0 0 0-.086.085l-.003.004c-.027.03-.053.061-.077.094l-.02.03a1.354 1.354 0 0 0-.052.077l-.018.03a1.51 1.51 0 0 0-.05.098l-.007.015a1.398 1.398 0 0 0-.045.118l-.009.027c-.01.032-.019.063-.026.095l-.007.034a1.378 1.378 0 0 0-.017.104l-.002.021a1.325 1.325 0 0 0-.008.127v33.043l-1.302 2.895a2.408 2.408 0 0 0 .116 2.196 2.409 2.409 0 0 0 1.855 1.182l3.42.315.028.006c.084.017.166.024.248.024l.038-.001 2.003.184c1.269.117 2.54.212 3.814.291a1.444 1.444 0 0 0 .22.02c.019 0 .037-.002.056-.003 2.483.147 4.972.222 7.462.222l.032.002.031-.002c2.49 0 4.98-.075 7.463-.222.019.001.037.003.056.003a1.456 1.456 0 0 0 .22-.02c1.274-.079 2.546-.174 3.814-.291l2.003-.184.037.001c.082 0 .165-.007.249-.024l.027-.006 3.42-.315a2.407 2.407 0 0 0 1.855-1.182 2.41 2.41 0 0 0 .117-2.196l-1.302-2.895v-21.15a3.303 3.303 0 0 0 1.386-3.77zm-2.498.785a.675.675 0 0 1-.396.828l-1.11.435-.381.15c-.253.1-.52.143-.785.136a1.995 1.995 0 0 1-.893-.234l-9.202-4.912a6.08 6.08 0 0 0-4.137-.58l-6.047 1.3a2.75 2.75 0 0 1-2.367-.608l-4.176-3.622 24.422 2.86 2.4.28 1.167.137.314.037 1.191 3.793zm-2.672-6.601l-12.897-1.51v-8.722H91.71v10.232zm-8.838-24.77l.407.557c.3.412.318.978.042 1.408l-1.547 2.412a1.997 1.997 0 0 0-.128 1.935 1.996 1.996 0 0 0 1.57 1.14l2.599.32a1.8 1.8 0 0 1 1.197.673l.189.24a3.062 3.062 0 0 0 3.827.812l.682-.36v2.784H78.813V42.85h3.446c.242 0 .47.117.613.311zm-19.574.554c0-.477.388-.865.865-.865h12.032v12.233H71.3a1.308 1.308 0 1 0 0 2.617h4.895v8.414l-12.897-1.51V43.715zm-1.629 56.542h1.591l-.441 2.298-2.096-.194.947-2.104zm3.768 2.538l.488-2.538h3.133l-.281 2.816a120.02 120.02 0 0 1-2.617-.211l-.723-.067zm6.25-2.538h4.508v3.117a122.111 122.111 0 0 1-4.803-.145l.296-2.972zm-6.85-2.618h-2.705V68.5l1.166 1.011 4.051 3.514a5.378 5.378 0 0 0 4.631 1.19l6.047-1.3a3.462 3.462 0 0 1 2.355.33l9.202 4.912a4.62 4.62 0 0 0 2.126.544l.051.002a4.64 4.64 0 0 0 1.116-.138V97.64h-28.04zm13.976 5.735v-3.117h4.508l.296 2.972c-1.6.08-3.202.128-4.804.145zm10.035-.512c-.871.08-1.743.15-2.617.211l-.28-2.816h3.132l.488 2.538-.723.067zm3.342-.307l-.442-2.298h1.59l.947 2.104-2.095.194z" fill="#44220F"/><path d="M91.156 47.518a3.22 3.22 0 0 0 1.36.308c.657 0 1.283-.214 1.764-.631 1.102-.956 1.264-3.08 1.206-4.694-.061-1.685-1.316-2.987-3.276-3.4-1.36-.286-3.3.014-4.376 1.141-.719.753-.963 1.752-.688 2.816.458 1.77 2.717 3.856 4.01 4.46zm-1.43-5.469c.251-.262.87-.434 1.45-.434.172 0 .34.015.495.047.275.058 1.176.297 1.199.933.047 1.306-.141 2.315-.308 2.61a.6.6 0 0 1-.298-.059c-.876-.409-2.398-2.024-2.584-2.744-.062-.239-.007-.297.047-.353zM83.51 85.267l-4.865-3.385 1.275-5.47a1.624 1.624 0 0 0-.675-1.724 1.622 1.622 0 0 0-1.852.013l-5.614 3.916a3.287 3.287 0 0 0-.557 4.901l3.995 4.415-1.579 4.525-.254.726a1.632 1.632 0 0 0 .628 1.891l.022.016a1.628 1.628 0 0 0 2.008-.172l2.647-2.462 5-4.65a1.63 1.63 0 0 0 .518-1.313 1.628 1.628 0 0 0-.697-1.227zm-6.348 5.037l.718-2.06a1.635 1.635 0 0 0-.331-1.635l-4.386-4.846a.663.663 0 0 1-.169-.526.665.665 0 0 1 .283-.474l3.513-2.45-.845 3.623a1.627 1.627 0 0 0 .658 1.713l4.412 3.07-3.853 3.585zM67.273 55.89a1.29 1.29 0 0 0-.283-.425 1.319 1.319 0 0 0-1.426-.282 1.322 1.322 0 0 0-.588.481 1.296 1.296 0 0 0-.195.471 1.313 1.313 0 0 0 1.028 1.539 1.315 1.315 0 0 0 1.464-.782 1.364 1.364 0 0 0 .101-.502 1.313 1.313 0 0 0-.101-.5z" fill="#44220F"/></g><defs><linearGradient id="a" x1="1.877" y1="107.012" x2="143.815" y2="101.991" gradientUnits="userSpaceOnUse"><stop stop-color="#F59E27"/><stop offset=".476" stop-color="#F59E27" stop-opacity=".622"/><stop offset=".856" stop-color="#F59E27" stop-opacity=".078"/><stop offset="1" stop-color="#F59E27" stop-opacity="0"/></linearGradient><clipPath id="b"><path fill="#fff" transform="translate(44 39)" d="M0 0h67v67H0z"/></clipPath></defs></svg>