<svg width="158" height="124" viewBox="0 0 158 124" fill="none" xmlns="http://www.w3.org/2000/svg"><rect x=".415" y="74.879" width="148.517" height="56" rx="28" transform="rotate(-30 .415 74.88)" fill="url(#a)"/><path d="M51.365 88.663h6.653v16.089h-6.653v-16.09zm46.575 0h6.653v16.089h-6.654v-16.09z" fill="#393F5B"/><path d="M47.416 23.248h61.126V95.84H47.416V23.248z" fill="#4C5275"/><path d="M47.416 23.248h43.162v56.375H47.416V23.248z" fill="#C5F3FF"/><path d="M102.803 48.02h-6.486a1.996 1.996 0 1 1 0-3.991h6.486a1.995 1.995 0 1 1 0 3.99zm-1.237 14.646h-4.011a3.234 3.234 0 0 1-3.234-3.233V55.42a3.234 3.234 0 0 1 3.234-3.233h4.011a3.234 3.234 0 0 1 3.233 3.233v4.011a3.234 3.234 0 0 1-3.233 3.234zM51.741 89.373V86.09c0-1.183.959-2.142 2.142-2.142h30.229c1.183 0 2.142.959 2.142 2.142v3.284a2.142 2.142 0 0 1-2.142 2.142h-30.23a2.142 2.142 0 0 1-2.141-2.142z" fill="#E6E6E6"/><path d="M56.533 28.615h-2.037a1.59 1.59 0 0 0-1.591 1.59v6.134c0 .878.712 1.59 1.591 1.59h2.037c.878 0 1.591-.712 1.591-1.59v-6.133c0-.879-.713-1.591-1.591-1.591zm17.977 0h-2.037a1.59 1.59 0 0 0-1.59 1.59v6.134c0 .878.712 1.59 1.59 1.59h2.037a1.59 1.59 0 0 0 1.591-1.59v-6.133a1.59 1.59 0 0 0-1.59-1.591z" fill="#FF5543"/><path d="M65.522 28.615h-2.038a1.59 1.59 0 0 0-1.59 1.59v6.134c0 .878.712 1.59 1.59 1.59h2.038a1.59 1.59 0 0 0 1.59-1.59v-6.133a1.59 1.59 0 0 0-1.59-1.591z" fill="#FFDB45"/><path d="M83.499 28.615H81.46a1.59 1.59 0 0 0-1.59 1.59v6.134c0 .878.712 1.59 1.59 1.59h2.04a1.59 1.59 0 0 0 1.59-1.59v-6.133a1.59 1.59 0 0 0-1.59-1.591z" fill="#F59E27"/><path d="M56.533 49.407h-2.037a1.59 1.59 0 0 0-1.591 1.591v6.133c0 .879.712 1.59 1.591 1.59h2.037a1.59 1.59 0 0 0 1.591-1.59v-6.133a1.59 1.59 0 0 0-1.591-1.59z" fill="#FFDB45"/><path d="M74.51 49.407h-2.037a1.59 1.59 0 0 0-1.59 1.591v6.133c0 .879.712 1.59 1.59 1.59h2.037a1.59 1.59 0 0 0 1.591-1.59v-6.133a1.59 1.59 0 0 0-1.59-1.59z" fill="#F59E27"/><path d="M65.522 49.407h-2.038a1.59 1.59 0 0 0-1.59 1.591v6.133c0 .879.712 1.59 1.59 1.59h2.038a1.59 1.59 0 0 0 1.59-1.59v-6.133a1.59 1.59 0 0 0-1.59-1.59zm17.977 0H81.46a1.59 1.59 0 0 0-1.59 1.591v6.133c0 .879.712 1.59 1.59 1.59h2.04a1.59 1.59 0 0 0 1.59-1.59v-6.133a1.59 1.59 0 0 0-1.59-1.59zM56.533 67.299h-2.037a1.59 1.59 0 0 0-1.591 1.59v6.134c0 .879.712 1.59 1.591 1.59h2.037c.878 0 1.591-.712 1.591-1.59v-6.134c0-.878-.713-1.59-1.591-1.59zm17.977 0h-2.037a1.59 1.59 0 0 0-1.59 1.59v6.134c0 .879.712 1.59 1.59 1.59h2.037a1.59 1.59 0 0 0 1.591-1.59v-6.134a1.59 1.59 0 0 0-1.59-1.59z" fill="#FF5543"/><path d="M65.522 67.299h-2.038a1.59 1.59 0 0 0-1.59 1.59v6.134c0 .879.712 1.59 1.59 1.59h2.038a1.59 1.59 0 0 0 1.59-1.59v-6.134a1.59 1.59 0 0 0-1.59-1.59z" fill="#F59E27"/><path d="M83.499 67.299H81.46a1.59 1.59 0 0 0-1.59 1.59v6.134c0 .879.712 1.59 1.59 1.59h2.04a1.59 1.59 0 0 0 1.59-1.59v-6.134a1.59 1.59 0 0 0-1.59-1.59z" fill="#FFDB45"/><path d="M108.542 35.712c.689 0 1.248-.559 1.248-1.248V23.248c0-.69-.559-1.248-1.248-1.248H47.416c-.689 0-1.247.559-1.247 1.248V95.84c0 .689.558 1.247 1.247 1.247h2.702v7.665c0 .689.558 1.248 1.247 1.248h6.653c.69 0 1.248-.559 1.248-1.248v-7.665h37.426v7.665c0 .689.558 1.248 1.247 1.248h6.654c.689 0 1.248-.559 1.248-1.248v-7.665h2.701c.689 0 1.248-.558 1.248-1.247V39.455a1.248 1.248 0 0 0-2.496 0v55.137H91.826V24.495h15.468v9.97c0 .688.559 1.247 1.248 1.247zm-51.77 67.793h-4.16v-6.418h4.16v6.418zm46.573-6.418v6.418h-4.158v-6.418h4.158zm-54.681-2.495V80.87H89.33v13.722H48.665zM89.33 78.375H48.665v-53.88H89.33v53.88z" fill="#44220F"/><path d="M52.905 43.003h32.184a1.248 1.248 0 1 0 0-2.495H52.905a1.247 1.247 0 1 0 0 2.495zm0 20.403h32.184a1.248 1.248 0 1 0 0-2.496H52.905a1.247 1.247 0 0 0 0 2.496zm49.898-20.626h-6.486a3.247 3.247 0 0 0-3.244 3.244 3.247 3.247 0 0 0 3.244 3.244h6.486a3.247 3.247 0 0 0 3.244-3.244 3.247 3.247 0 0 0-3.244-3.243zm0 3.993h-6.486a.75.75 0 0 1 0-1.497h6.486a.75.75 0 0 1 0 1.497zm-1.237 4.167h-4.011a4.487 4.487 0 0 0-4.482 4.481v4.01a4.487 4.487 0 0 0 4.482 4.483h4.011a4.487 4.487 0 0 0 4.481-4.482v-4.01a4.487 4.487 0 0 0-4.481-4.482zm1.986 8.492a1.989 1.989 0 0 1-1.986 1.986h-4.011a1.988 1.988 0 0 1-1.986-1.986v-4.01c0-1.096.89-1.987 1.986-1.987h4.011c1.095 0 1.986.891 1.986 1.986v4.011zM97.63 39.926v-3.66a1.247 1.247 0 0 0-2.496 0v3.66a1.248 1.248 0 0 0 2.495 0zM84.112 82.7h-30.23a3.393 3.393 0 0 0-3.389 3.389v3.284a3.393 3.393 0 0 0 3.39 3.39h3.263a1.248 1.248 0 1 0 0-2.496h-3.263a.896.896 0 0 1-.895-.894V86.09c0-.493.401-.894.895-.894h30.229c.493 0 .894.401.894.894v3.284a.895.895 0 0 1-.894.894H62.137a1.247 1.247 0 1 0 0 2.495h21.975c1.869 0 3.39-1.52 3.39-3.389V86.09a3.393 3.393 0 0 0-3.39-3.389zM54.496 39.177h2.037a2.841 2.841 0 0 0 2.838-2.838v-6.133a2.84 2.84 0 0 0-2.838-2.838h-2.037a2.84 2.84 0 0 0-2.838 2.838v6.133a2.841 2.841 0 0 0 2.838 2.838zm-.343-8.971c0-.19.153-.343.343-.343h2.037c.19 0 .343.154.343.343v6.133c0 .19-.154.343-.343.343h-2.037a.343.343 0 0 1-.343-.343v-6.133zm18.32 8.971h2.037a2.842 2.842 0 0 0 2.839-2.838v-6.133a2.841 2.841 0 0 0-2.839-2.838h-2.037a2.841 2.841 0 0 0-2.838 2.838v6.133a2.842 2.842 0 0 0 2.838 2.838zm-.344-8.971c0-.19.154-.343.344-.343h2.037c.19 0 .343.154.343.343v6.133c0 .19-.154.343-.343.343h-2.037a.343.343 0 0 1-.344-.343v-6.133zm-8.645 8.971h2.038a2.842 2.842 0 0 0 2.838-2.838v-6.133a2.841 2.841 0 0 0-2.838-2.838h-2.038a2.841 2.841 0 0 0-2.838 2.838v6.133a2.842 2.842 0 0 0 2.838 2.838zm-.343-8.971c0-.19.154-.343.343-.343h2.038c.19 0 .343.154.343.343v6.133c0 .19-.154.343-.343.343h-2.038a.343.343 0 0 1-.343-.343v-6.133zm18.32 8.971H83.5a2.841 2.841 0 0 0 2.838-2.838v-6.133a2.84 2.84 0 0 0-2.838-2.838h-2.04a2.84 2.84 0 0 0-2.837 2.838v6.133a2.841 2.841 0 0 0 2.837 2.838zm-.343-8.971c0-.19.154-.343.343-.343H83.5c.19 0 .343.154.343.343v6.133c0 .19-.154.343-.343.343h-2.04a.343.343 0 0 1-.343-.343v-6.133zM54.496 59.97h2.037a2.841 2.841 0 0 0 2.838-2.839v-6.133a2.841 2.841 0 0 0-2.838-2.838h-2.037a2.841 2.841 0 0 0-2.838 2.838v6.133a2.841 2.841 0 0 0 2.838 2.839zm-.343-8.972c0-.189.153-.343.343-.343h2.037c.19 0 .343.154.343.343v6.133c0 .19-.154.344-.343.344h-2.037a.344.344 0 0 1-.343-.344v-6.133zm18.32-2.838a2.842 2.842 0 0 0-2.838 2.838v6.133a2.842 2.842 0 0 0 2.838 2.839h2.037a2.842 2.842 0 0 0 2.839-2.839v-6.133a2.842 2.842 0 0 0-2.839-2.838h-2.037zm2.38 2.838v6.133c0 .19-.154.344-.343.344h-2.038a.344.344 0 0 1-.343-.344v-6.133c0-.189.154-.343.343-.343h2.038c.19 0 .343.154.343.343zM63.484 48.16a2.842 2.842 0 0 0-2.838 2.838v6.133a2.842 2.842 0 0 0 2.838 2.839h2.038a2.842 2.842 0 0 0 2.838-2.839v-6.133a2.842 2.842 0 0 0-2.838-2.838h-2.038zm2.381 2.838v6.133c0 .19-.154.344-.343.344h-2.038a.344.344 0 0 1-.343-.344v-6.133c0-.189.154-.343.343-.343h2.038c.189 0 .343.154.343.343zm17.634-2.838H81.46a2.841 2.841 0 0 0-2.837 2.838v6.133a2.841 2.841 0 0 0 2.837 2.839h2.04a2.841 2.841 0 0 0 2.838-2.839v-6.133A2.841 2.841 0 0 0 83.5 48.16zm.343 8.971c0 .19-.154.344-.343.344H81.46a.344.344 0 0 1-.343-.344v-6.133c0-.189.154-.343.343-.343h2.04c.19 0 .343.154.343.343v6.133zm-29.346 20.73h2.037a2.841 2.841 0 0 0 2.838-2.838V68.89a2.841 2.841 0 0 0-2.838-2.839h-2.037a2.841 2.841 0 0 0-2.838 2.839v6.133a2.841 2.841 0 0 0 2.838 2.838zm-.343-8.971c0-.19.153-.344.343-.344h2.037c.19 0 .343.154.343.344v6.133c0 .19-.154.343-.343.343h-2.037a.344.344 0 0 1-.343-.343V68.89zm20.357-2.839h-2.038a2.841 2.841 0 0 0-2.837 2.839v6.133a2.841 2.841 0 0 0 2.837 2.838h2.038a2.841 2.841 0 0 0 2.838-2.838V68.89a2.841 2.841 0 0 0-2.838-2.839zm.343 8.972a.344.344 0 0 1-.343.343h-2.038a.343.343 0 0 1-.343-.343v-6.134c0-.189.154-.343.343-.343h2.038c.19 0 .343.154.343.343v6.134zm-9.331-8.972h-2.038a2.842 2.842 0 0 0-2.838 2.839v6.133a2.842 2.842 0 0 0 2.838 2.838h2.038a2.842 2.842 0 0 0 2.838-2.838V68.89a2.842 2.842 0 0 0-2.838-2.839zm.343 8.972a.344.344 0 0 1-.343.343h-2.038a.343.343 0 0 1-.343-.343v-6.134c0-.189.154-.343.343-.343h2.038c.19 0 .343.154.343.343v6.134zm17.634-8.972H81.46a2.841 2.841 0 0 0-2.837 2.839v6.133a2.841 2.841 0 0 0 2.837 2.838h2.04a2.841 2.841 0 0 0 2.838-2.838V68.89a2.841 2.841 0 0 0-2.838-2.839zm.343 8.972a.344.344 0 0 1-.343.343H81.46a.343.343 0 0 1-.343-.343v-6.134c0-.189.154-.343.343-.343h2.04c.19 0 .343.154.343.343v6.134z" fill="#44220F"/><defs><linearGradient id="a" x1="2.292" y1="107.012" x2="144.23" y2="101.991" gradientUnits="userSpaceOnUse"><stop stop-color="#F59E27"/><stop offset=".476" stop-color="#F59E27" stop-opacity=".622"/><stop offset=".856" stop-color="#F59E27" stop-opacity=".078"/><stop offset="1" stop-color="#F59E27" stop-opacity="0"/></linearGradient></defs></svg>