<svg width="22" height="20" viewBox="0 0 22 20" fill="none" xmlns="http://www.w3.org/2000/svg"><path d="M.814 1.628h2.333L6.47 13.646c.095.353.42.597.787.597h10.214c.326 0 .61-.19.746-.489l3.717-8.545a.823.823 0 0 0-.068-.773.808.808 0 0 0-.678-.367H9.902a.816.816 0 0 0-.814.814c0 .448.367.814.814.814H19.94l-3.011 6.918H7.867L4.544.597A.814.814 0 0 0 3.757 0H.814A.816.816 0 0 0 0 .814c0 .448.366.814.814.814zm5.669 18.339a1.847 1.847 0 0 0 1.845-1.845 1.847 1.847 0 0 0-1.845-1.844 1.847 1.847 0 0 0-1.844 1.844c0 1.018.827 1.845 1.844 1.845zm11.531 0h.136a1.84 1.84 0 0 0 1.261-.637 1.84 1.84 0 0 0 .448-1.343 1.85 1.85 0 0 0-1.967-1.71 1.848 1.848 0 0 0 .122 3.69z" fill="#F59E27"/></svg>