<svg width="19" height="20" viewBox="0 0 19 20" fill="none" xmlns="http://www.w3.org/2000/svg"><path d="M12.483 9.36l-1.108-1.107-5.39 5.39 1.108 1.107 5.39-5.39z" fill="#BDBDBD"/><path d="M7.032 8.191L5.924 9.3l5.512 5.512 1.108-1.107L7.032 8.19z" fill="#BDBDBD"/><path d="M0 3.003v1.566h1.632l1.295 14.716a.783.783 0 0 0 .78.715h11.201c.406 0 .745-.31.78-.715L16.983 4.57h1.66V3.003H0zm14.19 15.43H4.426L3.205 4.57h12.206l-1.22 13.864z" fill="#BDBDBD"/><path d="M11.88 0H6.762c-.72 0-1.305.586-1.305 1.305v2.48h1.567V1.568h4.595v2.219h1.566v-2.48C13.185.585 12.6 0 11.88 0z" fill="#BDBDBD"/></svg>