<svg width="28" height="31" viewBox="0 0 28 31" fill="none" xmlns="http://www.w3.org/2000/svg"><path d="M18.55 23.332h-4.04a.495.495 0 0 0-.494.495v4.04c0 .273.221.495.494.495h4.04a.495.495 0 0 0 .495-.495v-4.04a.495.495 0 0 0-.495-.495zm-.495 4.04h-3.05v-3.05h3.05v3.05z" fill="url(#a)"/><path d="M12.533 23.332h-4.04a.495.495 0 0 0-.495.495v4.04c0 .273.221.495.495.495h4.04a.495.495 0 0 0 .494-.495v-4.04a.495.495 0 0 0-.494-.495zm-.495 4.04h-3.05v-3.05h3.05v3.05z" fill="url(#b)"/><path d="M12.533 17.314h-4.04a.495.495 0 0 0-.495.495v4.04c0 .273.221.494.495.494h4.04a.495.495 0 0 0 .494-.494v-4.04a.495.495 0 0 0-.494-.495zm-.495 4.04h-3.05v-3.05h3.05v3.05z" fill="url(#c)"/><path d="M6.513 23.332h-4.04a.495.495 0 0 0-.494.495v4.04c0 .273.22.495.494.495h4.04a.495.495 0 0 0 .495-.495v-4.04a.495.495 0 0 0-.495-.495zm-.495 4.04h-3.05v-3.05h3.05v3.05z" fill="url(#d)"/><path d="M24.57 13.356h-4.04a.495.495 0 0 0-.495.495v1.979c0 .273.222.495.495.495h4.04a.495.495 0 0 0 .494-.495v-1.98a.495.495 0 0 0-.494-.495zm-.495 1.98h-3.05v-.99h3.05v.99z" fill="url(#e)"/><path d="M18.55 17.314h-4.04a.495.495 0 0 0-.494.495v4.04c0 .273.221.494.494.494h4.04a.495.495 0 0 0 .495-.494v-4.04a.495.495 0 0 0-.495-.495zm-.495 4.04h-3.05v-3.05h3.05v3.05z" fill="url(#f)"/><path d="M6.513 17.314h-4.04a.495.495 0 0 0-.494.495v4.04c0 .273.22.494.494.494h4.04a.495.495 0 0 0 .495-.494v-4.04a.495.495 0 0 0-.495-.495zm-.495 4.04h-3.05v-3.05h3.05v3.05z" fill="url(#g)"/><path d="M18.55 13.356h-4.04a.495.495 0 0 0-.494.495v1.979c0 .273.221.495.494.495h4.04a.495.495 0 0 0 .495-.495v-1.98a.495.495 0 0 0-.495-.495zm-.495 1.98h-3.05v-.99h3.05v.99z" fill="url(#h)"/><path d="M24.57 0H2.472A2.476 2.476 0 0 0 0 2.473v26.054A2.476 2.476 0 0 0 2.473 31H24.57a2.476 2.476 0 0 0 2.474-2.473V2.473A2.476 2.476 0 0 0 24.569 0zm1.483 28.527c0 .818-.666 1.484-1.484 1.484H2.473A1.486 1.486 0 0 1 .99 28.527V2.473C.99 1.655 1.655.99 2.473.99H24.57c.818 0 1.484.666 1.484 1.484v26.054z" fill="url(#i)"/><path d="M24.57 17.314h-4.04a.495.495 0 0 0-.495.495v10.058c0 .273.222.495.495.495h4.04a.495.495 0 0 0 .494-.495v-6.1a.495.495 0 1 0-.989 0v5.605h-3.05v-9.069h3.05v1.484a.495.495 0 0 0 .99 0V17.81a.495.495 0 0 0-.495-.495z" fill="url(#j)"/><path d="M24.569 2.638H2.473a.495.495 0 0 0-.494.495v8.08c0 .273.22.494.494.494h4.04a.495.495 0 1 0 0-.989H2.968v-7.09h21.106v7.09H8.492a.495.495 0 1 0 0 .99h16.077a.495.495 0 0 0 .495-.495v-8.08a.495.495 0 0 0-.495-.495z" fill="url(#k)"/><path d="M20.612 5.606h1.979a.495.495 0 1 0 0-.99h-1.98a.495.495 0 1 0 0 .99z" fill="url(#l)"/><path d="M20.612 9.564h1.979a.495.495 0 1 0 0-.99h-1.98a.495.495 0 1 0 0 .99z" fill="url(#m)"/><path d="M20.117 7.75a.495.495 0 1 0 .99 0V6.431a.495.495 0 1 0-.99 0v1.32z" fill="url(#n)"/><defs><linearGradient id="a" x1="19.045" y1="19.309" x2="13.998" y2="19.316" gradientUnits="userSpaceOnUse"><stop stop-color="#F59E27"/><stop offset="1" stop-color="#FC5829"/></linearGradient><linearGradient id="b" x1="13.027" y1="19.309" x2="7.981" y2="19.316" gradientUnits="userSpaceOnUse"><stop stop-color="#F59E27"/><stop offset="1" stop-color="#FC5829"/></linearGradient><linearGradient id="c" x1="13.027" y1="13.29" x2="7.981" y2="13.297" gradientUnits="userSpaceOnUse"><stop stop-color="#F59E27"/><stop offset="1" stop-color="#FC5829"/></linearGradient><linearGradient id="d" x1="7.008" y1="19.309" x2="1.961" y2="19.316" gradientUnits="userSpaceOnUse"><stop stop-color="#F59E27"/><stop offset="1" stop-color="#FC5829"/></linearGradient><linearGradient id="e" x1="25.064" y1="10.982" x2="20.018" y2="10.993" gradientUnits="userSpaceOnUse"><stop stop-color="#F59E27"/><stop offset="1" stop-color="#FC5829"/></linearGradient><linearGradient id="f" x1="19.045" y1="13.29" x2="13.998" y2="13.297" gradientUnits="userSpaceOnUse"><stop stop-color="#F59E27"/><stop offset="1" stop-color="#FC5829"/></linearGradient><linearGradient id="g" x1="7.008" y1="13.29" x2="1.961" y2="13.297" gradientUnits="userSpaceOnUse"><stop stop-color="#F59E27"/><stop offset="1" stop-color="#FC5829"/></linearGradient><linearGradient id="h" x1="19.045" y1="10.982" x2="13.998" y2="10.993" gradientUnits="userSpaceOnUse"><stop stop-color="#F59E27"/><stop offset="1" stop-color="#FC5829"/></linearGradient><linearGradient id="i" x1="27.043" y1="-24.8" x2="-.094" y2="-24.77" gradientUnits="userSpaceOnUse"><stop stop-color="#F59E27"/><stop offset="1" stop-color="#FC5829"/></linearGradient><linearGradient id="j" x1="25.064" y1="8.476" x2="20.018" y2="8.479" gradientUnits="userSpaceOnUse"><stop stop-color="#F59E27"/><stop offset="1" stop-color="#FC5829"/></linearGradient><linearGradient id="k" x1="25.064" y1="-4.617" x2="1.899" y2="-4.543" gradientUnits="userSpaceOnUse"><stop stop-color="#F59E27"/><stop offset="1" stop-color="#FC5829"/></linearGradient><linearGradient id="l" x1="23.085" y1="3.825" x2="20.107" y2="3.837" gradientUnits="userSpaceOnUse"><stop stop-color="#F59E27"/><stop offset="1" stop-color="#FC5829"/></linearGradient><linearGradient id="m" x1="23.085" y1="7.783" x2="20.107" y2="7.794" gradientUnits="userSpaceOnUse"><stop stop-color="#F59E27"/><stop offset="1" stop-color="#FC5829"/></linearGradient><linearGradient id="n" x1="21.107" y1="4.089" x2="20.114" y2="4.09" gradientUnits="userSpaceOnUse"><stop stop-color="#F59E27"/><stop offset="1" stop-color="#FC5829"/></linearGradient></defs></svg>