<svg width="23" height="28" viewBox="0 0 23 28" fill="none" xmlns="http://www.w3.org/2000/svg"><path d="M20.673 3.028h-.245V2.61c0-.882-.716-1.6-1.557-1.6h-.003L4.195 0c-.883 0-1.6.718-1.6 1.6v1.428h-.246c-.977 0-1.773.795-1.773 1.773v2.263c0 .978.796 1.773 1.773 1.773h.056l1.717 17.315c0 .882.717 1.6 1.6 1.6h11.606c.22 0 .43-.044.622-.125.574-.24.977-.799.976-1.417l1.72-17.373h.028c.978 0 1.773-.796 1.773-1.773V4.8c0-.978-.796-1.773-1.774-1.773zM3.776 1.6c0-.23.188-.418.378-.419l14.674 1.01a.42.42 0 0 1 .419.419v.418H3.777V1.6zm15.2 11.939l-3.174.566a5.584 5.584 0 0 0-4.271-1.966c-1.66 0-3.197.712-4.271 1.966l-3.186-.567-.48-4.7h15.861l-.48 4.7zm-.104 1.219l-.459 4.643-3.104-.571-.22.292a4.419 4.419 0 0 1-3.558 1.783 4.42 4.42 0 0 1-3.557-1.783l-.22-.291-3.115.571-.46-4.644 3.576.636.219-.29a4.42 4.42 0 0 1 3.557-1.783 4.42 4.42 0 0 1 3.558 1.783l.218.29 3.565-.636zM17.327 26.57H5.722a.39.39 0 0 1-.161-.034c-.15-.067-.258-.228-.26-.442l-.008-.077-.53-5.437 2.498-.458a5.584 5.584 0 0 0 4.27 1.965c1.66 0 3.195-.712 4.27-1.964l2.486.457-.541 5.572a.424.424 0 0 1-.419.418zm3.938-19.506a.592.592 0 0 1-.592.591H2.35a.592.592 0 0 1-.59-.59V4.8c0-.326.265-.591.59-.591h18.324c.326 0 .592.265.592.59v2.264z" fill="#F59E27"/><path d="M11.51 14.186c-1.792 0-3.25 1.326-3.25 2.956s1.458 2.955 3.25 2.955c1.794 0 3.252-1.326 3.252-2.955 0-1.63-1.459-2.956-3.251-2.956zm0 4.729c-1.14 0-2.068-.796-2.068-1.773 0-.978.928-1.774 2.069-1.774 1.14 0 2.069.796 2.069 1.774 0 .977-.929 1.773-2.07 1.773z" fill="#F59E27"/></svg>