<svg width="36" height="23" viewBox="0 0 36 23" fill="none" xmlns="http://www.w3.org/2000/svg"><path d="M10.184 18.038a1.166 1.166 0 0 0 0 2.33 1.166 1.166 0 0 0 0-2.33z" fill="url(#a)"/><path d="M8.982 13.228H1.767a.564.564 0 0 0 0 1.127h7.215a.564.564 0 1 0 0-1.127z" fill="url(#b)"/><path d="M33.48 9.654l-.932-3.729a.564.564 0 0 0 .446-.551v-.601a2.37 2.37 0 0 0-2.368-2.368H26.38v-1.24C26.38.523 25.858 0 25.215 0H3.57c-.642 0-1.165.523-1.165 1.165v10.221a.564.564 0 0 0 1.127 0V1.165c0-.02.017-.038.038-.038h21.645c.02 0 .038.017.038.038v10.221a.564.564 0 1 0 1.127 0v-.639h6.652a1.846 1.846 0 0 1 1.752 1.278h-1.753a.564.564 0 0 0-.563.564v1.202c0 .974.792 1.766 1.766 1.766h.639v2.48h-1.474a3.575 3.575 0 0 0-3.374-2.404 3.576 3.576 0 0 0-3.374 2.405h-.271V13.79a.564.564 0 1 0-1.128 0v4.247H13.558a3.576 3.576 0 0 0-3.374-2.405 3.575 3.575 0 0 0-3.374 2.405H3.57A.038.038 0 0 1 3.532 18v-1.24h2.443a.564.564 0 0 0 0-1.128H.564a.564.564 0 1 0 0 1.128h1.841V18c0 .642.523 1.165 1.165 1.165h3.045l-.001.038a3.574 3.574 0 0 0 3.57 3.57 3.574 3.574 0 0 0 3.57-3.57l-.001-.038h12.703v.038a3.574 3.574 0 0 0 3.569 3.57 3.574 3.574 0 0 0 3.57-3.57l-.001-.038h1.842A.564.564 0 0 0 36 18.6v-6.01a2.973 2.973 0 0 0-2.52-2.935zm-7.1-6.122h4.246c.684 0 1.24.557 1.24 1.24v.038H26.38V3.532zm0 6.088V5.937h5.009l.92 3.683H26.38zM10.184 21.645a2.445 2.445 0 0 1-2.443-2.442 2.445 2.445 0 0 1 2.443-2.443 2.445 2.445 0 0 1 2.442 2.443 2.445 2.445 0 0 1-2.442 2.442zm19.841 0a2.445 2.445 0 0 1-2.442-2.442 2.445 2.445 0 0 1 2.442-2.443 2.445 2.445 0 0 1 2.443 2.443 2.445 2.445 0 0 1-2.443 2.442zm4.848-7.215h-.64a.64.64 0 0 1-.638-.639v-.639h1.278v1.278z" fill="url(#c)"/><path d="M30.025 18.038a1.166 1.166 0 0 0 0 2.33 1.166 1.166 0 0 0 0-2.33z" fill="url(#d)"/><path d="M23.412 15.633h-8.418a.564.564 0 1 0 0 1.127h8.418a.564.564 0 0 0 0-1.127z" fill="url(#e)"/><path d="M19.602 5.577a.564.564 0 0 0-.798 0l-5.012 5.012-2.608-2.607a.564.564 0 1 0-.797.797l3.006 3.006a.562.562 0 0 0 .797 0l5.411-5.411a.564.564 0 0 0 0-.797z" fill="url(#f)"/><defs><linearGradient id="a" x1="11.348" y1="16.174" x2="9.01" y2="16.177" gradientUnits="userSpaceOnUse"><stop stop-color="#F59E27"/><stop offset="1" stop-color="#FC5829"/></linearGradient><linearGradient id="b" x1="9.546" y1="12.326" x2="1.175" y2="12.404" gradientUnits="userSpaceOnUse"><stop stop-color="#F59E27"/><stop offset="1" stop-color="#FC5829"/></linearGradient><linearGradient id="c" x1="36" y1="-18.218" x2="-.125" y2="-18.146" gradientUnits="userSpaceOnUse"><stop stop-color="#F59E27"/><stop offset="1" stop-color="#FC5829"/></linearGradient><linearGradient id="d" x1="31.19" y1="16.174" x2="28.852" y2="16.177" gradientUnits="userSpaceOnUse"><stop stop-color="#F59E27"/><stop offset="1" stop-color="#FC5829"/></linearGradient><linearGradient id="e" x1="23.976" y1="14.731" x2="14.399" y2="14.833" gradientUnits="userSpaceOnUse"><stop stop-color="#F59E27"/><stop offset="1" stop-color="#FC5829"/></linearGradient><linearGradient id="f" x1="19.767" y1=".181" x2="10.189" y2=".198" gradientUnits="userSpaceOnUse"><stop stop-color="#F59E27"/><stop offset="1" stop-color="#FC5829"/></linearGradient></defs></svg>