<svg width="33" height="33" viewBox="0 0 33 33" fill="none" xmlns="http://www.w3.org/2000/svg"><path d="M30.25 0a2.753 2.753 0 0 0-2.75 2.75v1.1c0 .304.246.55.55.55h4.4a.55.55 0 0 0 .55-.55v-1.1A2.753 2.753 0 0 0 30.25 0zm1.65 3.3h-3.3v-.55c0-.91.74-1.65 1.65-1.65.91 0 1.65.74 1.65 1.65v.55z" fill="url(#a)"/><path d="M22 18.15c-1.82 0-3.3 1.48-3.3 3.3 0 1.82 1.48 3.3 3.3 3.3 1.82 0 3.3-1.48 3.3-3.3 0-1.82-1.48-3.3-3.3-3.3zm0 5.5c-1.213 0-2.2-.987-2.2-2.2 0-1.214.987-2.2 2.2-2.2s2.2.986 2.2 2.2c0 1.213-.986 2.2-2.2 2.2z" fill="url(#b)"/><path d="M23.1 23.65v2.272l-.796-.53a.548.548 0 0 0-.61 0l-.794.53v-2.273h-1.1v3.3a.55.55 0 0 0 .855.458L22 26.511l1.345.896a.553.553 0 0 0 .564.027.55.55 0 0 0 .29-.485v-3.3h-1.1z" fill="url(#c)"/><path d="M19.8 5.5h-7.15v1.1h7.15V5.5z" fill="url(#d)"/><path d="M25.3 8.8H7.7v1.1h17.6V8.8z" fill="url(#e)"/><path d="M19.8 12.1H7.7v1.1h12.1v-1.1z" fill="url(#f)"/><path d="M25.3 12.1H22v1.1h3.3v-1.1z" fill="url(#g)"/><path d="M25.3 15.4H7.7v1.1h17.6v-1.1z" fill="url(#h)"/><path d="M14.3 18.7H7.7v1.1h6.6v-1.1z" fill="url(#i)"/><path d="M10.45 21.45H7.7v1.1h2.75v-1.1z" fill="url(#j)"/><path d="M14.3 21.45h-1.65v1.1h1.65v-1.1z" fill="url(#k)"/><path d="M30.25 0H7.15A2.753 2.753 0 0 0 4.4 2.75v26.4h1.1V2.75c0-.91.74-1.65 1.65-1.65h20.9a2.735 2.735 0 0 0-.55 1.65v27.5c0 .91-.74 1.65-1.65 1.65H4.95V33h20.9a2.753 2.753 0 0 0 2.75-2.75V2.75c0-.91.74-1.65 1.65-1.65a.55.55 0 1 0 0-1.1z" fill="url(#l)"/><path d="M25.85 31.9c-.91 0-1.65-.74-1.65-1.65v-1.1a.55.55 0 0 0-.55-.55H.55a.55.55 0 0 0-.55.55v1.1A2.753 2.753 0 0 0 2.75 33h23.1a.55.55 0 1 0 0-1.1zm-23.1 0c-.91 0-1.65-.74-1.65-1.65v-.55h22v.55c0 .618.205 1.19.551 1.65H2.75z" fill="url(#m)"/><defs><linearGradient id="a" x1="33" y1="-3.52" x2="27.481" y2="-3.511" gradientUnits="userSpaceOnUse"><stop stop-color="#F59E27"/><stop offset="1" stop-color="#FC5829"/></linearGradient><linearGradient id="b" x1="25.3" y1="12.869" x2="18.677" y2="12.878" gradientUnits="userSpaceOnUse"><stop stop-color="#F59E27"/><stop offset="1" stop-color="#FC5829"/></linearGradient><linearGradient id="c" x1="24.2" y1="20.569" x2="19.785" y2="20.576" gradientUnits="userSpaceOnUse"><stop stop-color="#F59E27"/><stop offset="1" stop-color="#FC5829"/></linearGradient><linearGradient id="d" x1="19.799" y1="4.62" x2="12.625" y2="4.679" gradientUnits="userSpaceOnUse"><stop stop-color="#F59E27"/><stop offset="1" stop-color="#FC5829"/></linearGradient><linearGradient id="e" x1="25.3" y1="7.919" x2="7.646" y2="8.275" gradientUnits="userSpaceOnUse"><stop stop-color="#F59E27"/><stop offset="1" stop-color="#FC5829"/></linearGradient><linearGradient id="f" x1="19.8" y1="11.22" x2="7.661" y2="11.388" gradientUnits="userSpaceOnUse"><stop stop-color="#F59E27"/><stop offset="1" stop-color="#FC5829"/></linearGradient><linearGradient id="g" x1="25.3" y1="11.22" x2="21.989" y2="11.233" gradientUnits="userSpaceOnUse"><stop stop-color="#F59E27"/><stop offset="1" stop-color="#FC5829"/></linearGradient><linearGradient id="h" x1="25.3" y1="14.52" x2="7.646" y2="14.876" gradientUnits="userSpaceOnUse"><stop stop-color="#F59E27"/><stop offset="1" stop-color="#FC5829"/></linearGradient><linearGradient id="i" x1="14.3" y1="17.82" x2="7.678" y2="17.87" gradientUnits="userSpaceOnUse"><stop stop-color="#F59E27"/><stop offset="1" stop-color="#FC5829"/></linearGradient><linearGradient id="j" x1="10.45" y1="20.57" x2="7.691" y2="20.578" gradientUnits="userSpaceOnUse"><stop stop-color="#F59E27"/><stop offset="1" stop-color="#FC5829"/></linearGradient><linearGradient id="k" x1="14.299" y1="20.57" x2="12.644" y2="20.573" gradientUnits="userSpaceOnUse"><stop stop-color="#F59E27"/><stop offset="1" stop-color="#FC5829"/></linearGradient><linearGradient id="l" x1="30.799" y1="-26.4" x2="4.308" y2="-26.373" gradientUnits="userSpaceOnUse"><stop stop-color="#F59E27"/><stop offset="1" stop-color="#FC5829"/></linearGradient><linearGradient id="m" x1="26.4" y1="25.08" x2="-.09" y2="25.28" gradientUnits="userSpaceOnUse"><stop stop-color="#F59E27"/><stop offset="1" stop-color="#FC5829"/></linearGradient></defs></svg>
