<svg width="204" height="204" fill="none" xmlns="http://www.w3.org/2000/svg"><g opacity=".1" fill="#F59E27"><path d="M203.957 77.986a3.188 3.188 0 0 0-.139-.69 3.44 3.44 0 0 0-.194-.585 3.02 3.02 0 0 0-.34-.52 3.172 3.172 0 0 0-.452-.528c-.054-.047-.078-.112-.136-.16l-32.699-25.395v-26.32c0-5.634-4.567-10.2-10.2-10.2h-36.848L108.196 2.131a10.082 10.082 0 0 0-12.4 0L81.037 13.587H44.191c-5.633 0-10.2 4.567-10.2 10.2v26.321L1.3 75.504c-.057.048-.08.112-.135.16-.17.158-.321.335-.452.527a3.03 3.03 0 0 0-.34.52 3.354 3.354 0 0 0-.194.585c-.07.221-.117.45-.14.68 0 .072-.04.133-.04.204v115.615a10.086 10.086 0 0 0 1.996 6.001c.02.031.024.068.047.095.024.027.075.058.109.095a10.148 10.148 0 0 0 8.038 4.009h183.608a10.15 10.15 0 0 0 8.065-4.025c.027-.034.068-.045.092-.079.024-.033.027-.064.048-.095a10.09 10.09 0 0 0 1.996-6.001V78.19c-.001-.072-.038-.133-.042-.204zM99.954 7.497a3.26 3.26 0 0 1 4.056 0l7.844 6.09h-19.72l7.82-6.09zM11.047 197.195l88.907-69.06a3.264 3.264 0 0 1 4.056 0l88.931 69.06H11.047zm186.151-5.301l-89.002-69.125a10.09 10.09 0 0 0-12.4 0L6.79 191.894V83.368l55.718 43.267a3.401 3.401 0 1 0 4.169-5.376L10.07 77.306l23.92-18.59V84.99a3.4 3.4 0 0 0 6.8 0V23.787a3.4 3.4 0 0 1 3.4-3.4h115.605a3.4 3.4 0 0 1 3.4 3.4V84.99a3.4 3.4 0 1 0 6.8 0V58.717l23.92 18.589-56.704 44.032a3.398 3.398 0 0 0 .781 5.863 3.405 3.405 0 0 0 3.388-.491l55.816-43.342v108.526h.001z"/><path d="M142.795 81.59v-13.6c0-22.535-18.267-40.802-40.801-40.802-22.534 0-40.802 18.267-40.802 40.801 0 22.534 18.268 40.802 40.802 40.802a3.4 3.4 0 1 0 0-6.8c-18.779 0-34.002-15.223-34.002-34.001 0-18.779 15.223-34.002 34.002-34.002 18.778 0 34.001 15.223 34.001 34.002v13.6a6.8 6.8 0 0 1-13.601 0v-13.6a3.4 3.4 0 1 0-6.8 0c0 7.51-6.089 13.6-13.6 13.6-7.512 0-13.6-6.09-13.6-13.6 0-7.512 6.088-13.6 13.6-13.6a3.4 3.4 0 1 0 0-6.8 20.401 20.401 0 1 0 13.746 35.432c.741 7.19 6.99 12.537 14.209 12.155 7.219-.383 12.869-6.359 12.846-13.587z"/></g></svg>