<svg width="23" height="26" viewBox="0 0 23 26" fill="none" xmlns="http://www.w3.org/2000/svg"><path d="M4.875 0A1.63 1.63 0 0 0 3.25 1.625v22.75A1.63 1.63 0 0 0 4.875 26h16.25a1.63 1.63 0 0 0 1.625-1.625V6.5L16.25 0H4.875z" fill="#E2E5E7"/><path d="M17.875 6.5h4.875L16.25 0v4.875A1.63 1.63 0 0 0 17.875 6.5z" fill="#B0B7BD"/><path d="M22.75 11.375L17.875 6.5h4.875v4.875z" fill="#CAD1D8"/><path d="M19.5 21.125a.815.815 0 0 1-.813.813H.813A.815.815 0 0 1 0 21.125V13c0-.447.366-.813.813-.813h17.875c.446 0 .812.366.812.813v8.125z" fill="#F15642"/><path d="M3.542 15.394c0-.215.169-.449.441-.449h1.5c.846 0 1.606.566 1.606 1.65 0 1.027-.76 1.599-1.605 1.599H4.399v.858c0 .286-.182.447-.416.447a.438.438 0 0 1-.441-.447v-3.658zm.857.37v1.618h1.085c.435 0 .78-.384.78-.787 0-.454-.345-.831-.78-.831H4.399zM8.362 19.5c-.215 0-.449-.117-.449-.403v-3.69c0-.233.234-.403.449-.403h1.487c2.97 0 2.904 4.496.059 4.496H8.362zm.41-3.703v2.91h1.077c1.755 0 1.832-2.91 0-2.91H8.771zm5.035.052v1.032h1.656c.234 0 .468.234.468.461 0 .215-.234.39-.468.39h-1.656v1.364c0 .228-.162.402-.39.402-.285 0-.46-.174-.46-.402v-3.69c0-.233.175-.403.46-.403h2.281c.286 0 .455.17.455.403a.449.449 0 0 1-.455.442h-1.891z" fill="#fff"/><path d="M18.688 21.938H3.25v.812h15.438a.815.815 0 0 0 .812-.813v-.812a.815.815 0 0 1-.813.813z" fill="#CAD1D8"/></svg>