<svg width="22" height="31" fill="none" xmlns="http://www.w3.org/2000/svg"><path d="M11 0C4.935 0 0 4.935 0 11c0 7.527 9.844 18.578 10.263 19.045a.991.991 0 0 0 1.474 0C12.157 29.578 22 18.527 22 11c0-6.065-4.935-11-11-11zm0 27.866C7.687 23.93 1.98 16.166 1.98 11c0-4.973 4.047-9.02 9.02-9.02s9.02 4.047 9.02 9.02c-.001 5.166-5.706 12.929-9.02 16.866z" fill="url(#a)"/><path d="M11 5.465a5.54 5.54 0 0 0-5.534 5.534A5.54 5.54 0 0 0 11 16.534a5.54 5.54 0 0 0 5.534-5.535A5.54 5.54 0 0 0 11 5.465zm0 9.088a3.557 3.557 0 0 1-3.553-3.554A3.557 3.557 0 0 1 11 7.446a3.557 3.557 0 0 1 3.554 3.553A3.558 3.558 0 0 1 11 14.553z" fill="url(#b)"/><defs><linearGradient id="a" x1="22" y1="-24.299" x2="-.076" y2="-24.278" gradientUnits="userSpaceOnUse"><stop stop-color="#F59E27"/><stop offset="1" stop-color="#FC5829"/></linearGradient><linearGradient id="b" x1="16.534" y1="-3.39" x2="5.428" y2="-3.376" gradientUnits="userSpaceOnUse"><stop stop-color="#F59E27"/><stop offset="1" stop-color="#FC5829"/></linearGradient></defs></svg>