<svg width="18" height="21" viewBox="0 0 18 21" fill="none" xmlns="http://www.w3.org/2000/svg"><path d="M17.303 0H.7a.702.702 0 0 0-.604 1.051l2.351 4.033v14.663a.7.7 0 0 0 .699.7h14.155a.7.7 0 0 0 .699-.7V.7a.696.696 0 0 0-.697-.7zm-.699 19.047H3.846v-4.194h2.447a.7.7 0 0 0 0-1.398H3.846v-1.923h2.447a.7.7 0 0 0 0-1.398H3.846V8.212h2.447a.7.7 0 0 0 0-1.398H3.846V4.892a.68.68 0 0 0-.093-.353L1.919 1.397h14.685v17.65zm-4.107-6.814a.786.786 0 1 1 1.571-.001.786.786 0 0 1-1.572 0zm-3.233 1.92c0-.484.39-.873.875-.873s.873.389.873.873a.872.872 0 0 1-.873.874.872.872 0 0 1-.875-.873zm2.359 2.274a1.311 1.311 0 1 1 2.622 0 1.311 1.311 0 0 1-2.622 0zM9.786 9.959c0-.484.39-.873.874-.873s.873.39.873.873-.389.874-.873.874a.872.872 0 0 1-.874-.874zm-2.423 6.817a.85.85 0 1 1 1.7.002.85.85 0 0 1-1.7-.002z" fill="#F59E27"/></svg>