<svg width="13" height="13" viewBox="0 0 13 13" fill="none" xmlns="http://www.w3.org/2000/svg"><path d="M9.496 13c-.707 0-1.38-.206-1.958-.598a5.972 5.972 0 0 1-5.275-1.665A5.972 5.972 0 0 1 .598 5.462 3.466 3.466 0 0 1 0 3.504 3.508 3.508 0 0 1 3.504 0c.707 0 1.38.206 1.958.598 4.089-.715 7.658 2.836 6.94 6.94.392.579.598 1.25.598 1.958A3.508 3.508 0 0 1 9.496 13zM7.97 11.46c.44.343.968.524 1.527.524a2.491 2.491 0 0 0 1.965-4.015.507.507 0 0 1-.096-.418C12.126 4.006 8.97.879 5.45 1.635a.508.508 0 0 1-.418-.096A2.491 2.491 0 0 0 1.54 5.031a.507.507 0 0 1 .096.418c-.76 3.537 2.388 6.674 5.916 5.916.146-.031.3.003.418.096zm1.036-3.462c0-1.371-1.733-1.79-2.121-1.91-.804-.246-1.874-.521-1.874-1.086 0-.537.683-.99 1.49-.99.642 0 1.228.29 1.424.707a.508.508 0 0 0 .92-.433c-.4-.848-1.394-1.29-2.344-1.29-1.478 0-2.505.961-2.505 2.006 0 1.371 1.733 1.79 2.121 1.91.804.246 1.874.521 1.874 1.086 0 .537-.683.99-1.49.99-.642 0-1.228-.29-1.424-.707a.508.508 0 0 0-.92.433c.4.848 1.394 1.29 2.344 1.29 1.478 0 2.505-.961 2.505-2.006z" fill="url(#a)"/><defs><linearGradient id="a" x1="13" y1="-10.4" x2="-.045" y2="-10.384" gradientUnits="userSpaceOnUse"><stop stop-color="#F59E27"/><stop offset="1" stop-color="#FC5829"/></linearGradient></defs></svg>