<svg width="15" height="15" viewBox="0 0 15 15" fill="none" xmlns="http://www.w3.org/2000/svg"><path d="M10.216 14.017c.059.002.115.005.174.005.627 0 1.15-.227 1.561-.673l.011-.01c.147-.177.312-.337.489-.505a9 9 0 0 0 .357-.355c.548-.571.545-1.295-.005-1.845l-1.522-1.522c-.261-.272-.574-.416-.905-.416-.328 0-.643.141-.913.411l-.9.9c-.08-.046-.162-.086-.243-.126a3.737 3.737 0 0 1-.277-.15C7.218 9.21 6.47 8.526 5.755 7.648c-.36-.454-.598-.833-.766-1.223.235-.214.454-.435.664-.651l.235-.238c.572-.571.572-1.279 0-1.847l-.755-.756-.26-.262c-.167-.17-.34-.35-.514-.51-.262-.261-.572-.397-.9-.397-.326 0-.64.136-.913.397l-.948.946a1.976 1.976 0 0 0-.587 1.257c-.048.609.064 1.255.352 2.034.446 1.204 1.116 2.323 2.11 3.52A13.019 13.019 0 0 0 7.794 13.3c.632.302 1.479.654 2.421.716zm-6.24-4.52C3.033 8.36 2.4 7.302 1.98 6.17c-.26-.696-.355-1.238-.315-1.754a1.31 1.31 0 0 1 .398-.849l.942-.942c.144-.139.302-.21.457-.21.152 0 .301.071.445.213.169.157.331.323.502.496.086.088.174.18.265.267l.755.756c.31.31.31.614 0 .923-.08.08-.16.16-.237.24-.235.238-.454.463-.697.679l-.014.013a.51.51 0 0 0-.13.58c.002.008.005.013.008.02.194.47.47.917.891 1.45.761.938 1.562 1.667 2.448 2.23.11.07.225.128.337.184.101.05.195.099.277.15l.03.016a.557.557 0 0 0 .253.064.536.536 0 0 0 .388-.18l.947-.947c.145-.144.3-.219.452-.219.186 0 .339.118.437.219l1.527 1.527c.374.374.203.71-.008.932-.106.115-.218.221-.336.336-.179.171-.363.35-.531.55-.289.31-.63.454-1.076.454-.043 0-.088-.003-.13-.005-.831-.054-1.6-.377-2.18-.652a12.267 12.267 0 0 1-4.108-3.214z" fill="url(#a)" stroke="url(#b)" stroke-width=".5"/><path d="M8.148 3.383a.327.327 0 0 0-.109.644A3.587 3.587 0 0 1 9.975 5.03a3.578 3.578 0 0 1 1.003 1.935.327.327 0 0 0 .38.267c.178-.03.298-.2.266-.376a4.22 4.22 0 0 0-1.185-2.288 4.229 4.229 0 0 0-2.29-1.186z" fill="url(#c)" stroke="url(#d)" stroke-width=".5"/><path d="M13.677 7.126A.324.324 0 0 0 14 6.744a6.962 6.962 0 0 0-1.96-3.78 6.979 6.979 0 0 0-3.782-1.96.327.327 0 0 0-.11.644 6.32 6.32 0 0 1 3.428 1.778 6.329 6.329 0 0 1 1.778 3.428c.027.16.166.272.323.272z" fill="url(#e)" stroke="url(#f)" stroke-width=".5"/><defs><linearGradient id="a" x1="13.217" y1="-8.045" x2=".958" y2="-8.029" gradientUnits="userSpaceOnUse"><stop stop-color="#F59E27"/><stop offset="1" stop-color="#FC5829"/></linearGradient><linearGradient id="b" x1="13.217" y1="-8.045" x2=".958" y2="-8.029" gradientUnits="userSpaceOnUse"><stop stop-color="#F59E27"/><stop offset="1" stop-color="#FC5829"/></linearGradient><linearGradient id="c" x1="11.63" y1=".291" x2="7.754" y2=".296" gradientUnits="userSpaceOnUse"><stop stop-color="#F59E27"/><stop offset="1" stop-color="#FC5829"/></linearGradient><linearGradient id="d" x1="11.63" y1=".291" x2="7.754" y2=".296" gradientUnits="userSpaceOnUse"><stop stop-color="#F59E27"/><stop offset="1" stop-color="#FC5829"/></linearGradient><linearGradient id="e" x1="14.006" y1="-3.901" x2="7.856" y2="-3.893" gradientUnits="userSpaceOnUse"><stop stop-color="#F59E27"/><stop offset="1" stop-color="#FC5829"/></linearGradient><linearGradient id="f" x1="14.006" y1="-3.901" x2="7.856" y2="-3.893" gradientUnits="userSpaceOnUse"><stop stop-color="#F59E27"/><stop offset="1" stop-color="#FC5829"/></linearGradient></defs></svg>