<svg width="22" height="22" viewBox="0 0 22 22" fill="none" xmlns="http://www.w3.org/2000/svg"><path d="M18.778 3.222A10.928 10.928 0 0 0 11 0C8.062 0 5.3 1.144 3.222 3.222A10.928 10.928 0 0 0 0 11c0 2.938 1.144 5.7 3.222 7.778A10.928 10.928 0 0 0 11 22c2.938 0 5.7-1.144 7.778-3.222A10.928 10.928 0 0 0 22 11c0-2.938-1.144-5.7-3.222-7.778zm-7.778 17c-5.085 0-9.223-4.137-9.223-9.222S5.915 1.777 11 1.777c5.085 0 9.223 4.138 9.223 9.223 0 5.085-4.138 9.223-9.223 9.223z" fill="#44220F"/><path d="M14.662 13.405l-2.773-2.773V4.934a.889.889 0 0 0-1.778 0V11c0 .236.094.462.26.629l3.034 3.033a.886.886 0 0 0 1.257 0 .889.889 0 0 0 0-1.257z" fill="#44220F"/></svg>