<svg width="17" height="17" viewBox="0 0 17 17" fill="none" xmlns="http://www.w3.org/2000/svg"><circle cx="8.5" cy="8.5" r="8" fill="#fff" stroke="#BDBDBD"/><path d="M7.736 10.348c0-.32.052-.6.156-.84.112-.248.244-.456.396-.624.16-.168.368-.368.624-.6.32-.28.556-.52.708-.72.152-.208.228-.456.228-.744 0-.392-.152-.704-.456-.936-.304-.24-.724-.36-1.26-.36-.936 0-1.652.316-2.148.948l-.876-.624a3.3 3.3 0 0 1 1.284-.996c.528-.232 1.136-.348 1.824-.348.872 0 1.564.192 2.076.576.512.376.768.896.768 1.56 0 .328-.056.62-.168.876a2.172 2.172 0 0 1-.384.624 8.94 8.94 0 0 1-.612.6c-.328.296-.572.556-.732.78-.152.224-.228.5-.228.828h-1.2zm.612 2.724a.789.789 0 0 1-.564-.216.773.773 0 0 1-.216-.552c0-.216.072-.396.216-.54a.766.766 0 0 1 .564-.228c.224 0 .408.076.552.228a.733.733 0 0 1 .216.54c0 .216-.076.4-.228.552a.733.733 0 0 1-.54.216z" fill="#BDBDBD"/></svg>