<svg width="19" height="20" viewBox="0 0 19 20" fill="none" xmlns="http://www.w3.org/2000/svg">
<path d="M12.4827 9.36029L11.375 8.25256L5.98551 13.6421L7.09324 14.7498L12.4827 9.36029Z" fill="#BDBDBD"/>
<path d="M7.03156 8.19135L5.92383 9.29907L11.4361 14.8113L12.5438 13.7036L7.03156 8.19135Z" fill="#BDBDBD"/>
<path d="M0 3.00256V4.56913H1.63238L2.92738 19.2853C2.96289 19.6897 3.30156 19.9999 3.70754 19.9999H14.9083C15.3143 19.9999 15.6532 19.6895 15.6885 19.2851L16.9835 4.56913H18.6423V3.00256H0ZM14.1909 18.4334H4.42481L3.20496 4.56913H15.411L14.1909 18.4334Z" fill="#BDBDBD"/>
<path d="M11.88 0H6.7625C6.04266 0 5.45703 0.585625 5.45703 1.30547V3.7859H7.02359V1.56656H11.6189V3.7859H13.1855V1.30547C13.1855 0.585625 12.5998 0 11.88 0Z" fill="#BDBDBD"/>
</svg>
