<svg width="22" height="20" viewBox="0 0 22 20" fill="none" xmlns="http://www.w3.org/2000/svg">
<path d="M0.813877 1.62775H3.14697L6.47032 13.646C6.56526 13.9987 6.89081 14.2428 7.25705 14.2428H17.4712C17.7968 14.2428 18.0816 14.0529 18.2172 13.7545L21.9339 5.20881C22.0425 4.9511 22.0153 4.66624 21.8661 4.43562C21.7169 4.20501 21.4592 4.06938 21.1878 4.06938H9.90215C9.45452 4.06938 9.08827 4.43562 9.08827 4.88326C9.08827 5.33089 9.45452 5.69713 9.90215 5.69713H19.94L16.9286 12.6151H7.86746L4.54416 0.596858C4.44922 0.244163 4.12367 0 3.75743 0H0.813877C0.366245 0 0 0.366244 0 0.813876C0 1.26151 0.366245 1.62775 0.813877 1.62775Z" fill="#F59E27"/>
<path d="M6.48345 19.9671C7.5008 19.9671 8.32822 19.1397 8.32822 18.1224C8.32822 17.105 7.5008 16.2776 6.48345 16.2776C5.4661 16.2776 4.63867 17.105 4.63867 18.1223C4.63867 19.1397 5.4661 19.9671 6.48345 19.9671Z" fill="#F59E27"/>
<path d="M18.0141 19.9672C18.0548 19.9672 18.1091 19.9672 18.1498 19.9672C18.6381 19.9265 19.0857 19.7095 19.4113 19.3296C19.7368 18.9634 19.886 18.4886 19.8589 17.9867C19.7911 16.9829 18.9094 16.2097 17.8921 16.2776C16.8747 16.3454 16.1151 17.2407 16.1829 18.2444C16.2507 19.2075 17.051 19.9672 18.0141 19.9672Z" fill="#F59E27"/>
</svg>
