<svg width="28" height="31" viewBox="0 0 28 31" fill="none" xmlns="http://www.w3.org/2000/svg">
<path d="M18.5502 23.3325H14.5103C14.237 23.3325 14.0156 23.554 14.0156 23.8272V27.8671C14.0156 28.1403 14.237 28.3618 14.5103 28.3618H18.5502C18.8235 28.3618 19.0449 28.1403 19.0449 27.8671V23.8272C19.0449 23.554 18.8235 23.3325 18.5502 23.3325ZM18.0555 27.3724H15.005V24.3219H18.0555V27.3724Z" fill="url(#paint0_linear)"/>
<path d="M12.5326 23.3325H8.49273C8.21947 23.3325 7.99805 23.554 7.99805 23.8272V27.8671C7.99805 28.1403 8.21947 28.3618 8.49273 28.3618H12.5326C12.8059 28.3618 13.0273 28.1403 13.0273 27.8671V23.8272C13.0273 23.554 12.8059 23.3325 12.5326 23.3325ZM12.0379 27.3724H8.98741V24.3219H12.0379V27.3724Z" fill="url(#paint1_linear)"/>
<path d="M12.5326 17.314H8.49273C8.21947 17.314 7.99805 17.5354 7.99805 17.8086V21.8485C7.99805 22.1217 8.21947 22.3432 8.49273 22.3432H12.5326C12.8059 22.3432 13.0273 22.1217 13.0273 21.8485V17.8086C13.0273 17.5354 12.8059 17.314 12.5326 17.314ZM12.0379 21.3539H8.98741V18.3033H12.0379V21.3539Z" fill="url(#paint2_linear)"/>
<path d="M6.51309 23.3325H2.4732C2.19993 23.3325 1.97852 23.554 1.97852 23.8272V27.8671C1.97852 28.1403 2.19993 28.3618 2.4732 28.3618H6.51309C6.78635 28.3618 7.00777 28.1403 7.00777 27.8671V23.8272C7.00777 23.554 6.78635 23.3325 6.51309 23.3325ZM6.01841 27.3724H2.96788V24.3219H6.01841V27.3724Z" fill="url(#paint3_linear)"/>
<path d="M24.5697 13.3564H20.5298C20.2566 13.3564 20.0352 13.5779 20.0352 13.8511V15.8298C20.0352 16.103 20.2566 16.3245 20.5298 16.3245H24.5697C24.843 16.3245 25.0644 16.103 25.0644 15.8298V13.8511C25.0644 13.5779 24.843 13.3564 24.5697 13.3564ZM24.075 15.3352H21.0245V14.3458H24.075V15.3352Z" fill="url(#paint4_linear)"/>
<path d="M18.5502 17.314H14.5103C14.237 17.314 14.0156 17.5354 14.0156 17.8086V21.8485C14.0156 22.1217 14.237 22.3432 14.5103 22.3432H18.5502C18.8235 22.3432 19.0449 22.1217 19.0449 21.8485V17.8086C19.0449 17.5354 18.8235 17.314 18.5502 17.314ZM18.0555 21.3539H15.005V18.3033H18.0555V21.3539Z" fill="url(#paint5_linear)"/>
<path d="M6.51309 17.314H2.4732C2.19993 17.314 1.97852 17.5354 1.97852 17.8086V21.8485C1.97852 22.1217 2.19993 22.3432 2.4732 22.3432H6.51309C6.78635 22.3432 7.00777 22.1217 7.00777 21.8485V17.8086C7.00777 17.5354 6.78635 17.314 6.51309 17.314ZM6.01841 21.3539H2.96788V18.3033H6.01841V21.3539Z" fill="url(#paint6_linear)"/>
<path d="M18.5502 13.3564H14.5103C14.237 13.3564 14.0156 13.5779 14.0156 13.8511V15.8298C14.0156 16.103 14.237 16.3245 14.5103 16.3245H18.5502C18.8235 16.3245 19.0449 16.103 19.0449 15.8298V13.8511C19.0449 13.5779 18.8235 13.3564 18.5502 13.3564ZM18.0555 15.3352H15.005V14.3458H18.0555V15.3352Z" fill="url(#paint7_linear)"/>
<path d="M24.5691 0H2.4734C1.10954 0 0 1.10954 0 2.4734V28.5266C0 29.8905 1.10954 31 2.4734 31H24.5691C25.933 31 27.0426 29.8905 27.0426 28.5266V2.4734C27.0426 1.10954 25.933 0 24.5691 0ZM26.0532 28.5266C26.0532 29.3449 25.3874 30.0106 24.5691 30.0106H2.4734C1.65514 30.0106 0.989362 29.3449 0.989362 28.5266V2.4734C0.989362 1.65507 1.65514 0.989362 2.4734 0.989362H24.5691C25.3874 0.989362 26.0532 1.65507 26.0532 2.4734V28.5266Z" fill="url(#paint8_linear)"/>
<path d="M24.5697 17.314H20.5298C20.2566 17.314 20.0352 17.5354 20.0352 17.8086V27.8672C20.0352 28.1404 20.2566 28.3618 20.5298 28.3618H24.5697C24.843 28.3618 25.0644 28.1404 25.0644 27.8672V21.7661C25.0644 21.4929 24.843 21.2714 24.5697 21.2714C24.2965 21.2714 24.075 21.4929 24.075 21.7661V27.3725H21.0245V18.3033H24.075V19.7874C24.075 20.0606 24.2965 20.2821 24.5697 20.2821C24.843 20.2821 25.0644 20.0606 25.0644 19.7874V17.8086C25.0644 17.5354 24.843 17.314 24.5697 17.314Z" fill="url(#paint9_linear)"/>
<path d="M24.5689 2.63818H2.4732C2.19993 2.63818 1.97852 2.85967 1.97852 3.13286V11.2127C1.97852 11.4858 2.19993 11.7073 2.4732 11.7073H6.51309C6.78635 11.7073 7.00777 11.4858 7.00777 11.2127C7.00777 10.9395 6.78635 10.718 6.51309 10.718H2.96788V3.62755H24.0743V10.718H8.49181C8.21855 10.718 7.99713 10.9395 7.99713 11.2127C7.99713 11.4858 8.21855 11.7073 8.49181 11.7073H24.5689C24.8422 11.7073 25.0636 11.4858 25.0636 11.2127V3.13286C25.0636 2.85967 24.8422 2.63818 24.5689 2.63818Z" fill="url(#paint10_linear)"/>
<path d="M20.6119 5.60631H22.5906C22.8639 5.60631 23.0853 5.38482 23.0853 5.11162C23.0853 4.83843 22.8639 4.61694 22.5906 4.61694H20.6119C20.3386 4.61694 20.1172 4.83843 20.1172 5.11162C20.1172 5.38482 20.3386 5.60631 20.6119 5.60631Z" fill="url(#paint11_linear)"/>
<path d="M20.6119 9.56382H22.5906C22.8639 9.56382 23.0853 9.34234 23.0853 9.06914C23.0853 8.79595 22.8639 8.57446 22.5906 8.57446H20.6119C20.3386 8.57446 20.1172 8.79595 20.1172 9.06914C20.1172 9.34234 20.3386 9.56382 20.6119 9.56382Z" fill="url(#paint12_linear)"/>
<path d="M20.1172 7.75011C20.1172 8.0233 20.3386 8.24479 20.6119 8.24479C20.8851 8.24479 21.1065 8.0233 21.1065 7.75011V6.43096C21.1065 6.15776 20.8851 5.93628 20.6119 5.93628C20.3386 5.93628 20.1172 6.15776 20.1172 6.43096V7.75011Z" fill="url(#paint13_linear)"/>
<defs>
<linearGradient id="paint0_linear" x1="19.0449" y1="19.3091" x2="13.9982" y2="19.3155" gradientUnits="userSpaceOnUse">
<stop stop-color="#F59E27"/>
<stop offset="1" stop-color="#FC5829"/>
</linearGradient>
<linearGradient id="paint1_linear" x1="13.0273" y1="19.3091" x2="7.98063" y2="19.3155" gradientUnits="userSpaceOnUse">
<stop stop-color="#F59E27"/>
<stop offset="1" stop-color="#FC5829"/>
</linearGradient>
<linearGradient id="paint2_linear" x1="13.0273" y1="13.2905" x2="7.98063" y2="13.2969" gradientUnits="userSpaceOnUse">
<stop stop-color="#F59E27"/>
<stop offset="1" stop-color="#FC5829"/>
</linearGradient>
<linearGradient id="paint3_linear" x1="7.00777" y1="19.3091" x2="1.9611" y2="19.3155" gradientUnits="userSpaceOnUse">
<stop stop-color="#F59E27"/>
<stop offset="1" stop-color="#FC5829"/>
</linearGradient>
<linearGradient id="paint4_linear" x1="25.0644" y1="10.982" x2="20.0178" y2="10.9927" gradientUnits="userSpaceOnUse">
<stop stop-color="#F59E27"/>
<stop offset="1" stop-color="#FC5829"/>
</linearGradient>
<linearGradient id="paint5_linear" x1="19.0449" y1="13.2905" x2="13.9982" y2="13.2969" gradientUnits="userSpaceOnUse">
<stop stop-color="#F59E27"/>
<stop offset="1" stop-color="#FC5829"/>
</linearGradient>
<linearGradient id="paint6_linear" x1="7.00777" y1="13.2905" x2="1.9611" y2="13.2969" gradientUnits="userSpaceOnUse">
<stop stop-color="#F59E27"/>
<stop offset="1" stop-color="#FC5829"/>
</linearGradient>
<linearGradient id="paint7_linear" x1="19.0449" y1="10.982" x2="13.9982" y2="10.9927" gradientUnits="userSpaceOnUse">
<stop stop-color="#F59E27"/>
<stop offset="1" stop-color="#FC5829"/>
</linearGradient>
<linearGradient id="paint8_linear" x1="27.0426" y1="-24.8001" x2="-0.0936394" y2="-24.7703" gradientUnits="userSpaceOnUse">
<stop stop-color="#F59E27"/>
<stop offset="1" stop-color="#FC5829"/>
</linearGradient>
<linearGradient id="paint9_linear" x1="25.0644" y1="8.47564" x2="20.0177" y2="8.47853" gradientUnits="userSpaceOnUse">
<stop stop-color="#F59E27"/>
<stop offset="1" stop-color="#FC5829"/>
</linearGradient>
<linearGradient id="paint10_linear" x1="25.0636" y1="-4.61716" x2="1.89879" y2="-4.54289" gradientUnits="userSpaceOnUse">
<stop stop-color="#F59E27"/>
<stop offset="1" stop-color="#FC5829"/>
</linearGradient>
<linearGradient id="paint11_linear" x1="23.0853" y1="3.82545" x2="20.1069" y2="3.83671" gradientUnits="userSpaceOnUse">
<stop stop-color="#F59E27"/>
<stop offset="1" stop-color="#FC5829"/>
</linearGradient>
<linearGradient id="paint12_linear" x1="23.0853" y1="7.78297" x2="20.1069" y2="7.79423" gradientUnits="userSpaceOnUse">
<stop stop-color="#F59E27"/>
<stop offset="1" stop-color="#FC5829"/>
</linearGradient>
<linearGradient id="paint13_linear" x1="21.1065" y1="4.08947" x2="20.1138" y2="4.09" gradientUnits="userSpaceOnUse">
<stop stop-color="#F59E27"/>
<stop offset="1" stop-color="#FC5829"/>
</linearGradient>
</defs>
</svg>
