<svg width="23" height="28" viewBox="0 0 23 28" fill="none" xmlns="http://www.w3.org/2000/svg">
<path d="M20.6734 3.02759H20.4281V2.60969C20.4281 1.72777 19.7117 1.01018 18.8706 1.01018C18.87 1.01018 18.8694 1.01018 18.8682 1.01018L4.19486 0C3.31176 0 2.59417 0.718181 2.59417 1.6001V3.02759H2.34946C1.37179 3.02759 0.576172 3.82321 0.576172 4.80088V7.06418C0.576172 8.04186 1.37179 8.83747 2.34946 8.83747H2.40502L4.12156 26.1524C4.12156 27.0344 4.83915 27.7525 5.72225 27.7525H17.3278C17.5483 27.7525 17.7587 27.7076 17.9502 27.6272C18.5242 27.3866 18.9273 26.8281 18.9256 26.2104L20.6451 8.83688H20.674C21.6517 8.83688 22.4473 8.04127 22.4473 7.06359V4.80088C22.4467 3.82321 21.6511 3.02759 20.6734 3.02759ZM3.77636 1.6001C3.77636 1.36957 3.96374 1.18219 4.15407 1.18101L18.828 2.19119C19.0585 2.19119 19.2465 2.37857 19.2465 2.60969V3.02759H3.77636V1.6001ZM18.9752 13.5385L15.8016 14.1047C14.7276 12.851 13.1907 12.1387 11.5309 12.1387C9.87056 12.1387 8.33371 12.851 7.25969 14.1053L4.07428 13.5379L3.5949 8.83747H19.4552L18.9752 13.5385ZM18.8718 14.7579L18.4131 19.4015L15.3086 18.8299L15.0888 19.1219C14.2364 20.2551 12.9395 20.9053 11.5315 20.9053C10.123 20.9053 8.82609 20.2551 7.97373 19.1219L7.75385 18.8305L4.63877 19.4021L4.1789 14.7579L7.75503 15.3939L7.97373 15.1043C8.82609 13.9711 10.123 13.3209 11.5315 13.3209C12.9395 13.3209 14.2364 13.9711 15.0888 15.1043L15.3075 15.3945L18.8718 14.7579ZM17.3272 26.5703H5.72166C5.66491 26.5703 5.61053 26.5585 5.56088 26.5361C5.41133 26.4687 5.30316 26.3079 5.3008 26.0939L5.29312 26.0171L4.7629 20.5802L7.26087 20.1221C8.33489 21.3752 9.87115 22.0869 11.5309 22.0869C13.1902 22.0869 14.7264 21.3752 15.8004 20.1227L18.2872 20.5802L17.7457 26.1524C17.7451 26.3788 17.5542 26.5703 17.3272 26.5703ZM21.2645 7.06418C21.2645 7.39047 20.9991 7.65528 20.6734 7.65528H2.34946C2.02377 7.65528 1.75836 7.39047 1.75836 7.06418V4.80088C1.75836 4.47459 2.02377 4.20978 2.34946 4.20978H2.59417H20.4281H20.6734C20.9991 4.20978 21.2645 4.47459 21.2645 4.80088V7.06418Z" fill="#F59E27"/>
<path d="M11.5108 14.1863C9.718 14.1863 8.25977 15.5121 8.25977 17.1418C8.25977 18.7714 9.718 20.0972 11.5108 20.0972C13.3036 20.0972 14.7618 18.7714 14.7618 17.1418C14.7618 15.5121 13.303 14.1863 11.5108 14.1863ZM11.5108 18.915C10.37 18.915 9.44196 18.1194 9.44196 17.1418C9.44196 16.1641 10.37 15.3685 11.5108 15.3685C12.6516 15.3685 13.5796 16.1641 13.5796 17.1418C13.5796 18.1194 12.651 18.915 11.5108 18.915Z" fill="#F59E27"/>
</svg>
