<svg width="36" height="23" viewBox="0 0 36 23" fill="none" xmlns="http://www.w3.org/2000/svg">
<path d="M10.1835 18.0376C9.54112 18.0376 9.01855 18.5602 9.01855 19.2025C9.01855 19.8449 9.54112 20.3675 10.1835 20.3675C10.8259 20.3675 11.3484 19.8449 11.3484 19.2025C11.3484 18.5602 10.8259 18.0376 10.1835 18.0376Z" fill="url(#paint0_linear)"/>
<path d="M8.98188 13.228H1.76682C1.45555 13.228 1.20312 13.4804 1.20312 13.7917C1.20312 14.1031 1.45548 14.3554 1.76682 14.3554H8.98188C9.29316 14.3554 9.54558 14.1031 9.54558 13.7917C9.54558 13.4804 9.29316 13.228 8.98188 13.228Z" fill="url(#paint1_linear)"/>
<path d="M33.4799 9.654L32.5476 5.92496C32.8025 5.87082 32.9938 5.6447 32.9938 5.37378V4.77254C32.9938 3.46712 31.9317 2.40511 30.6264 2.40511H26.38V1.16494C26.38 0.522564 25.8575 0 25.2151 0H3.56991C2.92754 0 2.40497 0.522564 2.40497 1.16494V11.3863C2.40497 11.6976 2.65733 11.95 2.96867 11.95C3.27994 11.95 3.53237 11.6976 3.53237 11.3863V1.16494C3.53237 1.1442 3.54917 1.12739 3.56991 1.12739H25.215C25.2358 1.12739 25.2526 1.1442 25.2526 1.16494V11.3864C25.2526 11.6977 25.5049 11.9501 25.8163 11.9501C26.1275 11.9501 26.38 11.6978 26.38 11.3864V10.7474H33.0294C33.0299 10.7474 33.0303 10.7476 33.0308 10.7476C33.0314 10.7476 33.0319 10.7475 33.0324 10.7475C33.8506 10.7481 34.5454 11.2851 34.784 12.0251H33.0313C32.72 12.0251 32.4676 12.2775 32.4676 12.5888V13.7913C32.4676 14.7652 33.2598 15.5575 34.2337 15.5575H34.8726V18.0376H33.3987C32.9145 16.6396 31.5856 15.6326 30.025 15.6326C28.4644 15.6326 27.1353 16.6396 26.6512 18.0376H26.3798V13.7913C26.3798 13.48 26.1275 13.2276 25.8161 13.2276C25.5049 13.2276 25.2524 13.4799 25.2524 13.7913V18.0375H13.5575C13.0733 16.6395 11.7443 15.6325 10.1837 15.6325C8.62314 15.6325 7.29409 16.6395 6.80999 18.0375H3.56991C3.54917 18.0375 3.53237 18.0207 3.53237 18V16.7599H5.97496C6.28623 16.7599 6.53865 16.5075 6.53865 16.1962C6.53865 15.8848 6.2863 15.6325 5.97496 15.6325H0.563696C0.252422 15.6325 0 15.8848 0 16.1962C0 16.5075 0.252352 16.7599 0.563696 16.7599H2.40504V18C2.40504 18.6423 2.92761 19.1649 3.56998 19.1649H6.6148C6.61466 19.1774 6.61382 19.1899 6.61382 19.2025C6.61382 21.1709 8.21533 22.7724 10.1837 22.7724C12.1521 22.7724 13.7536 21.1709 13.7536 19.2025C13.7536 19.1898 13.7528 19.1774 13.7527 19.1649H26.456C26.4559 19.1774 26.4551 19.1899 26.4551 19.2025C26.4551 21.1709 28.0566 22.7724 30.025 22.7724C31.9934 22.7724 33.5949 21.1709 33.5949 19.2025C33.5949 19.1898 33.594 19.1774 33.5939 19.1649H35.4363C35.7476 19.1649 36 18.9125 36 18.6012V12.5887C36.0001 11.1043 34.9048 9.87091 33.4799 9.654ZM26.38 3.53244H30.6264C31.3102 3.53244 31.8665 4.08875 31.8665 4.77254V4.81009H26.38V3.53244ZM26.38 9.6201V5.93741H31.3888L32.3094 9.6201H26.38ZM10.1837 21.6452C8.83689 21.6452 7.74114 20.5495 7.74114 19.2026C7.74114 17.8557 8.83689 16.76 10.1837 16.76C11.5306 16.76 12.6263 17.8557 12.6263 19.2026C12.6263 20.5495 11.5306 21.6452 10.1837 21.6452ZM30.0251 21.6452C28.6783 21.6452 27.5825 20.5495 27.5825 19.2026C27.5825 17.8557 28.6783 16.76 30.0251 16.76C31.372 16.76 32.4677 17.8557 32.4677 19.2026C32.4677 20.5495 31.372 21.6452 30.0251 21.6452ZM34.8727 14.4301H34.2339C33.8816 14.4301 33.595 14.1435 33.595 13.7913V13.1524H34.8727V14.4301H34.8727Z" fill="url(#paint2_linear)"/>
<path d="M30.0253 18.0376C29.3829 18.0376 28.8604 18.5602 28.8604 19.2025C28.8604 19.8449 29.3829 20.3675 30.0253 20.3675C30.6677 20.3675 31.1902 19.8449 31.1902 19.2025C31.1902 18.5602 30.6677 18.0376 30.0253 18.0376Z" fill="url(#paint3_linear)"/>
<path d="M23.4119 15.6326H14.9944C14.6831 15.6326 14.4307 15.8849 14.4307 16.1963C14.4307 16.5076 14.683 16.76 14.9944 16.76H23.4119C23.7232 16.76 23.9756 16.5076 23.9756 16.1963C23.9756 15.8849 23.7233 15.6326 23.4119 15.6326Z" fill="url(#paint4_linear)"/>
<path d="M19.6015 5.57667C19.3814 5.35659 19.0244 5.35659 18.8043 5.57674L13.7916 10.5894L11.1839 7.98171C10.9638 7.76157 10.6069 7.76157 10.3868 7.98171C10.1666 8.20186 10.1666 8.5587 10.3868 8.77885L13.3931 11.7851C13.5031 11.8952 13.6474 11.9502 13.7916 11.9502C13.9358 11.9502 14.0802 11.8952 14.1901 11.7851L19.6014 6.37388C19.8216 6.15366 19.8216 5.79682 19.6015 5.57667Z" fill="url(#paint5_linear)"/>
<defs>
<linearGradient id="paint0_linear" x1="11.3484" y1="16.1737" x2="9.01049" y2="16.1766" gradientUnits="userSpaceOnUse">
<stop stop-color="#F59E27"/>
<stop offset="1" stop-color="#FC5829"/>
</linearGradient>
<linearGradient id="paint1_linear" x1="9.54558" y1="12.3261" x2="1.17495" y2="12.4041" gradientUnits="userSpaceOnUse">
<stop stop-color="#F59E27"/>
<stop offset="1" stop-color="#FC5829"/>
</linearGradient>
<linearGradient id="paint2_linear" x1="36" y1="-18.2179" x2="-0.124556" y2="-18.146" gradientUnits="userSpaceOnUse">
<stop stop-color="#F59E27"/>
<stop offset="1" stop-color="#FC5829"/>
</linearGradient>
<linearGradient id="paint3_linear" x1="31.1902" y1="16.1737" x2="28.8523" y2="16.1766" gradientUnits="userSpaceOnUse">
<stop stop-color="#F59E27"/>
<stop offset="1" stop-color="#FC5829"/>
</linearGradient>
<linearGradient id="paint4_linear" x1="23.9756" y1="14.7307" x2="14.3987" y2="14.8328" gradientUnits="userSpaceOnUse">
<stop stop-color="#F59E27"/>
<stop offset="1" stop-color="#FC5829"/>
</linearGradient>
<linearGradient id="paint5_linear" x1="19.7665" y1="0.180718" x2="10.1886" y2="0.198329" gradientUnits="userSpaceOnUse">
<stop stop-color="#F59E27"/>
<stop offset="1" stop-color="#FC5829"/>
</linearGradient>
</defs>
</svg>
