<svg width="16" height="13" viewBox="0 0 16 13" fill="none" xmlns="http://www.w3.org/2000/svg">
<path d="M13.6115 1H2.75664C1.78766 1 1 1.78766 1 2.75664V10.1755C1 11.1445 1.78766 11.9322 2.75664 11.9322H13.6085C14.5775 11.9322 15.3652 11.1445 15.3652 10.1755V2.75961C15.3681 1.79063 14.5805 1 13.6115 1ZM14.5656 10.1755C14.5656 10.7016 14.1376 11.1296 13.6115 11.1296H2.75664C2.23054 11.1296 1.80252 10.7016 1.80252 10.1755V2.75961C1.80252 2.23351 2.23054 1.8055 2.75664 1.8055H13.6085C14.1346 1.8055 14.5627 2.23351 14.5627 2.75961V10.1755H14.5656Z" fill="url(#paint0_linear)" stroke="url(#paint1_linear)" stroke-width="0.2"/>
<path d="M10.0607 6.37404L13.5739 3.22339C13.7374 3.07477 13.7523 2.82213 13.6037 2.65568C13.4551 2.4922 13.2024 2.47734 13.036 2.62595L8.19109 6.97445L7.24589 6.13031C7.24292 6.12734 7.23995 6.12436 7.23995 6.12139C7.21914 6.10059 7.19834 6.08275 7.17456 6.06492L3.32839 2.62298C3.16194 2.47437 2.90929 2.48923 2.76068 2.65568C2.61206 2.82213 2.62692 3.07477 2.79337 3.22339L6.34826 6.40079L2.80823 9.71492C2.64773 9.8665 2.63881 10.1191 2.7904 10.2826C2.87065 10.3659 2.97766 10.4104 3.08466 10.4104C3.18275 10.4104 3.28083 10.3748 3.35811 10.3034L6.95164 6.94175L7.92655 7.81264C8.00383 7.881 8.09895 7.9137 8.19406 7.9137C8.28918 7.9137 8.38726 7.87803 8.46157 7.80966L9.46324 6.91203L13.036 10.3064C13.1132 10.3807 13.2143 10.4164 13.3124 10.4164C13.4194 10.4164 13.5234 10.3748 13.6037 10.2915C13.7553 10.131 13.7493 9.87542 13.5888 9.72383L10.0607 6.37404Z" fill="url(#paint2_linear)" stroke="url(#paint3_linear)" stroke-width="0.2"/>
<defs>
<linearGradient id="paint0_linear" x1="15.3652" y1="-7.74575" x2="0.95028" y2="-7.72189" gradientUnits="userSpaceOnUse">
<stop stop-color="#F59E27"/>
<stop offset="1" stop-color="#FC5829"/>
</linearGradient>
<linearGradient id="paint1_linear" x1="15.3652" y1="-7.74575" x2="0.95028" y2="-7.72189" gradientUnits="userSpaceOnUse">
<stop stop-color="#F59E27"/>
<stop offset="1" stop-color="#FC5829"/>
</linearGradient>
<linearGradient id="paint2_linear" x1="13.7134" y1="-3.79621" x2="2.61994" y2="-3.77665" gradientUnits="userSpaceOnUse">
<stop stop-color="#F59E27"/>
<stop offset="1" stop-color="#FC5829"/>
</linearGradient>
<linearGradient id="paint3_linear" x1="13.7134" y1="-3.79621" x2="2.61994" y2="-3.77665" gradientUnits="userSpaceOnUse">
<stop stop-color="#F59E27"/>
<stop offset="1" stop-color="#FC5829"/>
</linearGradient>
</defs>
</svg>
