<svg width="33" height="33" viewBox="0 0 33 33" fill="none" xmlns="http://www.w3.org/2000/svg">
<path d="M30.25 0C28.7337 0 27.5 1.23363 27.5 2.75002V3.85004C27.5 4.15362 27.7458 4.40002 28.05 4.40002H32.45C32.7542 4.40002 33 4.15362 33 3.85004V2.75002C33 1.23363 31.7664 0 30.25 0ZM31.9 3.3H28.6V2.75002C28.6 1.84033 29.3403 1.10002 30.25 1.10002C31.1597 1.10002 31.9 1.84033 31.9 2.75002V3.3Z" fill="url(#paint0_linear)"/>
<path d="M22.0002 18.1494C20.1802 18.1494 18.7002 19.6295 18.7002 21.4494C18.7002 23.2694 20.1802 24.7494 22.0002 24.7494C23.8202 24.7494 25.3002 23.2694 25.3002 21.4494C25.3002 19.6295 23.8202 18.1494 22.0002 18.1494ZM22.0002 23.6494C20.7869 23.6494 19.8002 22.6627 19.8002 21.4494C19.8002 20.2361 20.7869 19.2494 22.0002 19.2494C23.2135 19.2494 24.2002 20.2361 24.2002 21.4494C24.2002 22.6627 23.2135 23.6494 22.0002 23.6494Z" fill="url(#paint1_linear)"/>
<path d="M23.0998 23.6494V25.922L22.3045 25.3918C22.1197 25.2681 21.8794 25.2681 21.6945 25.3918L20.8998 25.922V23.6494H19.7998V26.9494C19.7998 27.1524 19.9114 27.3388 20.0907 27.4345C20.269 27.5302 20.4867 27.5192 20.655 27.407L21.9998 26.5105L23.3445 27.407C23.4364 27.468 23.5431 27.4994 23.6498 27.4994C23.7389 27.4994 23.828 27.4779 23.9094 27.4345C24.0881 27.3388 24.1998 27.1523 24.1998 26.9494V23.6494H23.0998Z" fill="url(#paint2_linear)"/>
<path d="M19.7994 5.5H12.6494V6.60002H19.7994V5.5Z" fill="url(#paint3_linear)"/>
<path d="M25.3002 8.79932H7.7002V9.89934H25.3002V8.79932Z" fill="url(#paint4_linear)"/>
<path d="M19.8002 12.1001H7.7002V13.2001H19.8002V12.1001Z" fill="url(#paint5_linear)"/>
<path d="M25.3 12.1001H22V13.2001H25.3V12.1001Z" fill="url(#paint6_linear)"/>
<path d="M25.3002 15.3999H7.7002V16.4999H25.3002V15.3999Z" fill="url(#paint7_linear)"/>
<path d="M14.3002 18.6997H7.7002V19.7997H14.3002V18.6997Z" fill="url(#paint8_linear)"/>
<path d="M10.4502 21.4497H7.7002V22.5497H10.4502V21.4497Z" fill="url(#paint9_linear)"/>
<path d="M14.2994 21.4497H12.6494V22.5497H14.2994V21.4497Z" fill="url(#paint10_linear)"/>
<path d="M30.2494 0H7.14937C5.63305 0 4.39941 1.23363 4.39941 2.75002V29.15H5.49944V2.75002C5.49944 1.84033 6.23974 1.10002 7.14944 1.10002H28.0506C27.7046 1.55983 27.4995 2.13127 27.4995 2.75002V30.25C27.4995 31.1597 26.7592 31.9 25.8495 31.9H4.94939V33H25.8494C27.3657 33 28.5994 31.7664 28.5994 30.25V2.75002C28.5994 1.84033 29.3397 1.10002 30.2494 1.10002C30.5536 1.10002 30.7994 0.853617 30.7994 0.550043C30.7994 0.246469 30.5535 0 30.2494 0Z" fill="url(#paint11_linear)"/>
<path d="M25.85 31.8996C24.9403 31.8996 24.2 31.1593 24.2 30.2496V29.1496C24.2 28.8454 23.9542 28.5996 23.65 28.5996H0.549978C0.246404 28.5996 0 28.8454 0 29.1496V30.2496C0 31.766 1.23363 32.9996 2.75002 32.9996H25.85C26.1542 32.9996 26.4 32.7538 26.4 32.4497C26.4 32.1455 26.1542 31.8996 25.85 31.8996ZM2.75002 31.8996C1.84033 31.8996 1.10002 31.1593 1.10002 30.2496V29.6996H23.1V30.2496C23.1 30.8684 23.3052 31.4398 23.6511 31.8996H2.75002Z" fill="url(#paint12_linear)"/>
<defs>
<linearGradient id="paint0_linear" x1="33" y1="-3.52003" x2="27.481" y2="-3.51134" gradientUnits="userSpaceOnUse">
<stop stop-color="#F59E27"/>
<stop offset="1" stop-color="#FC5829"/>
</linearGradient>
<linearGradient id="paint1_linear" x1="25.3002" y1="12.8694" x2="18.6773" y2="12.8777" gradientUnits="userSpaceOnUse">
<stop stop-color="#F59E27"/>
<stop offset="1" stop-color="#FC5829"/>
</linearGradient>
<linearGradient id="paint2_linear" x1="24.1998" y1="20.5694" x2="19.7846" y2="20.5758" gradientUnits="userSpaceOnUse">
<stop stop-color="#F59E27"/>
<stop offset="1" stop-color="#FC5829"/>
</linearGradient>
<linearGradient id="paint3_linear" x1="19.7994" y1="4.61998" x2="12.6251" y2="4.67872" gradientUnits="userSpaceOnUse">
<stop stop-color="#F59E27"/>
<stop offset="1" stop-color="#FC5829"/>
</linearGradient>
<linearGradient id="paint4_linear" x1="25.3002" y1="7.9193" x2="7.6464" y2="8.27508" gradientUnits="userSpaceOnUse">
<stop stop-color="#F59E27"/>
<stop offset="1" stop-color="#FC5829"/>
</linearGradient>
<linearGradient id="paint5_linear" x1="19.8002" y1="11.2201" x2="7.66061" y2="11.3883" gradientUnits="userSpaceOnUse">
<stop stop-color="#F59E27"/>
<stop offset="1" stop-color="#FC5829"/>
</linearGradient>
<linearGradient id="paint6_linear" x1="25.3" y1="11.2201" x2="21.9886" y2="11.2326" gradientUnits="userSpaceOnUse">
<stop stop-color="#F59E27"/>
<stop offset="1" stop-color="#FC5829"/>
</linearGradient>
<linearGradient id="paint7_linear" x1="25.3002" y1="14.5199" x2="7.6464" y2="14.8757" gradientUnits="userSpaceOnUse">
<stop stop-color="#F59E27"/>
<stop offset="1" stop-color="#FC5829"/>
</linearGradient>
<linearGradient id="paint8_linear" x1="14.3002" y1="17.8197" x2="7.67771" y2="17.8697" gradientUnits="userSpaceOnUse">
<stop stop-color="#F59E27"/>
<stop offset="1" stop-color="#FC5829"/>
</linearGradient>
<linearGradient id="paint9_linear" x1="10.4502" y1="20.5697" x2="7.6907" y2="20.5784" gradientUnits="userSpaceOnUse">
<stop stop-color="#F59E27"/>
<stop offset="1" stop-color="#FC5829"/>
</linearGradient>
<linearGradient id="paint10_linear" x1="14.2994" y1="20.5697" x2="12.6437" y2="20.5728" gradientUnits="userSpaceOnUse">
<stop stop-color="#F59E27"/>
<stop offset="1" stop-color="#FC5829"/>
</linearGradient>
<linearGradient id="paint11_linear" x1="30.7994" y1="-26.4001" x2="4.30799" y2="-26.3734" gradientUnits="userSpaceOnUse">
<stop stop-color="#F59E27"/>
<stop offset="1" stop-color="#FC5829"/>
</linearGradient>
<linearGradient id="paint12_linear" x1="26.4" y1="25.0796" x2="-0.0899334" y2="25.2798" gradientUnits="userSpaceOnUse">
<stop stop-color="#F59E27"/>
<stop offset="1" stop-color="#FC5829"/>
</linearGradient>
</defs>
</svg>
