<svg width="53" height="69" fill="none" xmlns="http://www.w3.org/2000/svg"><path d="M46.778 26.335v-6.284C46.778 8.995 37.52 0 26.141 0 14.76 0 5.503 8.995 5.503 20.051v6.284C2.367 26.956 0 29.657 0 32.885v7.588c0 .738.616 1.337 1.376 1.337.76 0 1.376-.599 1.376-1.337v-7.589c0-2.211 1.851-4.01 4.127-4.01h38.523c2.276 0 4.128 1.799 4.128 4.01v28.874c0 1.743-1.15 3.229-2.752 3.78v-8.057c0-.739-.616-1.337-1.376-1.337-.76 0-1.376.598-1.376 1.337v8.288H6.88c-2.276 0-4.127-1.8-4.127-4.01V51.197c0-.738-.616-1.337-1.376-1.337-.76 0-1.376.599-1.376 1.337v10.56c0 3.686 3.086 6.684 6.88 6.684h38.522c3.793 0 6.88-2.998 6.88-6.684V32.884c0-3.227-2.368-5.928-5.504-6.549zm-31.094-.134v-6.15c0-5.601 4.691-10.159 10.457-10.159 5.765 0 10.456 4.558 10.456 10.16V26.2H15.684zm23.665 0v-6.15c0-7.076-5.926-12.832-13.208-12.832-7.283 0-13.208 5.756-13.208 12.832v6.15H8.255v-6.15c0-9.582 8.023-17.377 17.886-17.377 9.862 0 17.885 7.795 17.885 17.377v6.15h-4.678z" fill="url(#paint0_linear)"/><path d="M1.376 47.12c.362 0 .717-.143.973-.392.255-.249.403-.593.403-.945s-.148-.697-.403-.945a1.406 1.406 0 0 0-1.946 0 1.326 1.326 0 0 0-.403.945c0 .352.147.696.403.945s.611.391.973.391z" fill="url(#paint1_linear)"/><path d="M26.14 61.224c2.277 0 4.128-1.8 4.128-4.01v-7.1c2.067-1.329 3.32-3.563 3.32-6.012 0-3.98-3.333-7.219-7.43-7.219-4.096 0-7.429 3.239-7.429 7.219 0 2.43 1.239 4.657 3.284 5.99v7.121c0 2.212 1.852 4.01 4.128 4.01zm-4.66-17.122c0-2.507 2.099-4.545 4.678-4.545 2.58 0 4.678 2.038 4.678 4.545 0 1.72-.983 3.274-2.566 4.055a1.333 1.333 0 0 0-.753 1.192v7.864c0 .738-.617 1.337-1.376 1.337-.76 0-1.376-.6-1.376-1.337v-7.882c0-.5-.288-.959-.745-1.188-1.567-.784-2.54-2.333-2.54-4.041z" fill="url(#paint2_linear)"/><path d="M45.402 53.337c.364 0 .717-.143.973-.392.256-.248.403-.592.403-.945s-.147-.697-.403-.945a1.404 1.404 0 0 0-1.946 0 1.328 1.328 0 0 0-.403.945c0 .352.148.697.403.945.256.249.611.392.973.392z" fill="url(#paint3_linear)"/><defs><linearGradient id="paint0_linear" x1="52.281" y1="-54.754" x2="-.181" y2="-54.703" gradientUnits="userSpaceOnUse"><stop stop-color="#F59E27"/><stop offset="1" stop-color="#FC5829"/></linearGradient><linearGradient id="paint1_linear" x1="2.752" y1="42.307" x2="-.01" y2="42.311" gradientUnits="userSpaceOnUse"><stop stop-color="#F59E27"/><stop offset="1" stop-color="#FC5829"/></linearGradient><linearGradient id="paint2_linear" x1="33.588" y1="17.411" x2="18.677" y2="17.422" gradientUnits="userSpaceOnUse"><stop stop-color="#F59E27"/><stop offset="1" stop-color="#FC5829"/></linearGradient><linearGradient id="paint3_linear" x1="46.778" y1="48.525" x2="44.017" y2="48.528" gradientUnits="userSpaceOnUse"><stop stop-color="#F59E27"/><stop offset="1" stop-color="#FC5829"/></linearGradient></defs></svg>