<svg width="15" height="15" viewBox="0 0 15 15" fill="none" xmlns="http://www.w3.org/2000/svg">
<path d="M12.316 0.648108L0.648209 12.3159C0.290213 12.6739 0.290213 13.2543 0.648209 13.6123L0.648211 13.6123C1.00621 13.9703 1.58663 13.9703 1.94463 13.6123L13.6124 1.94453C13.9704 1.58653 13.9704 1.00611 13.6124 0.648108C13.2544 0.290112 12.674 0.290112 12.316 0.648108Z" fill="#44220F"/>
<path d="M13.6129 12.5189L1.94508 0.85109C1.58709 0.493094 1.00666 0.493094 0.648665 0.85109L0.648663 0.851093C0.290667 1.20909 0.290667 1.78952 0.648663 2.14751L12.3165 13.8153C12.6745 14.1733 13.2549 14.1733 13.6129 13.8153C13.9709 13.4573 13.9709 12.8769 13.6129 12.5189Z" fill="#44220F"/>
</svg>
