<svg width="23" height="26" viewBox="0 0 23 26" fill="none" xmlns="http://www.w3.org/2000/svg">
<path d="M4.875 0C3.98125 0 3.25 0.73125 3.25 1.625V24.375C3.25 25.2687 3.98125 26 4.875 26H21.125C22.0187 26 22.75 25.2687 22.75 24.375V6.5L16.25 0H4.875Z" fill="#E2E5E7"/>
<path d="M17.875 6.5H22.75L16.25 0V4.875C16.25 5.76875 16.9812 6.5 17.875 6.5Z" fill="#B0B7BD"/>
<path d="M22.75 11.375L17.875 6.5H22.75V11.375Z" fill="#CAD1D8"/>
<path d="M19.5 21.125C19.5 21.5719 19.1344 21.9375 18.6875 21.9375H0.8125C0.365625 21.9375 0 21.5719 0 21.125V13C0 12.5531 0.365625 12.1875 0.8125 12.1875H18.6875C19.1344 12.1875 19.5 12.5531 19.5 13V21.125Z" fill="#F15642"/>
<path d="M3.54199 15.3938C3.54199 15.1793 3.71099 14.9453 3.98318 14.9453H5.48387C6.32887 14.9453 7.08937 15.5108 7.08937 16.5947C7.08937 17.6217 6.32887 18.1937 5.48387 18.1937H4.39918V19.0517C4.39918 19.3377 4.21718 19.4994 3.98318 19.4994C3.76868 19.4994 3.54199 19.3377 3.54199 19.0517V15.3938ZM4.39918 15.7635V17.382H5.48387C5.91937 17.382 6.26387 16.9977 6.26387 16.5947C6.26387 16.1405 5.91937 15.7635 5.48387 15.7635H4.39918Z" fill="white"/>
<path d="M8.36159 19.4995C8.14709 19.4995 7.91309 19.3825 7.91309 19.0973V15.4069C7.91309 15.1737 8.14709 15.0039 8.36159 15.0039H9.84927C12.8181 15.0039 12.7531 19.4995 9.90777 19.4995H8.36159ZM8.77108 15.7969V18.7073H9.84927C11.6035 18.7073 11.6815 15.7969 9.84927 15.7969H8.77108Z" fill="white"/>
<path d="M13.8067 15.8487V16.8814H15.4634C15.6974 16.8814 15.9314 17.1154 15.9314 17.3421C15.9314 17.5566 15.6974 17.7321 15.4634 17.7321H13.8067V19.0963C13.8067 19.3238 13.645 19.4985 13.4175 19.4985C13.1315 19.4985 12.9568 19.3238 12.9568 19.0963V15.4059C12.9568 15.1727 13.1323 15.0029 13.4175 15.0029H15.6982C15.9842 15.0029 16.1532 15.1727 16.1532 15.4059C16.1532 15.6139 15.9842 15.8479 15.6982 15.8479H13.8067V15.8487Z" fill="white"/>
<path d="M18.6875 21.9375H3.25V22.75H18.6875C19.1344 22.75 19.5 22.3844 19.5 21.9375V21.125C19.5 21.5719 19.1344 21.9375 18.6875 21.9375Z" fill="#CAD1D8"/>
</svg>
