<svg width="18" height="21" viewBox="0 0 18 21" fill="none" xmlns="http://www.w3.org/2000/svg">
<path d="M17.3031 0H0.699633C0.449135 0 0.21685 0.135976 0.0928482 0.35229C-0.031403 0.567357 -0.0314031 0.837563 0.0955926 1.05138L2.44713 5.08376V19.7472C2.44713 20.1319 2.7615 20.4463 3.14598 20.4463H17.3009C17.6866 20.4463 18 20.1319 18 19.7472V0.699341C18.0022 0.311872 17.6886 0 17.3031 0ZM16.604 19.0471H3.84633V14.8526H6.29318C6.67891 14.8526 6.99228 14.5375 6.99228 14.1535C6.99228 13.7673 6.67891 13.4544 6.29318 13.4544H3.84633V11.5323H6.29318C6.67891 11.5323 6.99228 11.2169 6.99228 10.8332C6.99228 10.4475 6.67891 10.1341 6.29318 10.1341H3.84633V8.21196H6.29318C6.67891 8.21196 6.99228 7.89734 6.99228 7.51286C6.99228 7.12714 6.67891 6.81377 6.29318 6.81377H3.84633V4.89164C3.84633 4.7659 3.81589 4.64364 3.75302 4.53935L1.91894 1.39669H16.604V19.0471ZM12.4965 12.2326C12.4965 11.7987 12.8483 11.4464 13.2809 11.4464C13.7151 11.4464 14.0679 11.7987 14.0679 12.2326C14.0679 12.6667 13.7151 13.019 13.2809 13.019C12.8483 13.019 12.4965 12.6667 12.4965 12.2326ZM9.26423 14.1535C9.26423 13.669 9.65395 13.2797 10.1387 13.2797C10.6235 13.2797 11.0125 13.669 11.0125 14.1535C11.0125 14.6358 10.6233 15.0272 10.1387 15.0272C9.6542 15.0287 9.26423 14.6358 9.26423 14.1535ZM11.6228 16.4269C11.6228 15.7031 12.2098 15.116 12.9344 15.116C13.6592 15.116 14.245 15.7031 14.245 16.4269C14.245 17.1529 13.6577 17.7375 12.9344 17.7375C12.2098 17.7375 11.6228 17.1504 11.6228 16.4269ZM9.78594 9.95943C9.78594 9.47541 10.1752 9.0857 10.6597 9.0857C11.1442 9.0857 11.5334 9.47541 11.5334 9.95943C11.5334 10.4422 11.1442 10.8332 10.6597 10.8332C10.1762 10.8349 9.78594 10.4422 9.78594 9.95943ZM7.36254 16.7764C7.36254 16.3064 7.74428 15.9274 8.21384 15.9274C8.6834 15.9274 9.06363 16.3066 9.06363 16.7764C9.06363 17.2487 8.6834 17.6282 8.21384 17.6282C7.74428 17.6282 7.36254 17.2448 7.36254 16.7764Z" fill="#F59E27"/>
</svg>
