<svg width="13" height="13" viewBox="0 0 13 13" fill="none" xmlns="http://www.w3.org/2000/svg">
<path d="M9.49609 13C8.78893 13 8.11677 12.7941 7.53784 12.4021C5.66221 12.73 3.69285 12.1671 2.26284 10.7372C0.833527 9.30775 0.269875 7.33858 0.59787 5.46216C0.205902 4.88323 0 4.21107 0 3.50391C0 1.57184 1.57184 0 3.50391 0C4.21107 0 4.88323 0.205902 5.46216 0.59787C9.55074 -0.116837 13.1195 3.43438 12.4021 7.53784C12.7941 8.11677 13 8.78893 13 9.49609C13 11.4282 11.4282 13 9.49609 13ZM7.96928 11.4609C8.40926 11.8034 8.9372 11.9844 9.49609 11.9844C10.8681 11.9844 11.9844 10.8682 11.9844 9.49609C11.9844 8.9372 11.8034 8.40926 11.4609 7.96928C11.3687 7.85076 11.3335 7.69753 11.3652 7.55074C12.1265 4.00646 8.96894 0.878654 5.44926 1.63482C5.30257 1.66636 5.14924 1.63135 5.03072 1.53911C4.59074 1.19663 4.0628 1.01562 3.50391 1.01562C2.13192 1.01562 1.01562 2.13182 1.01562 3.50391C1.01562 4.0628 1.19663 4.59074 1.53911 5.03072C1.63135 5.14924 1.66646 5.30247 1.63482 5.44926C0.875183 8.9856 4.02283 12.123 7.55074 11.3652C7.69683 11.3337 7.85027 11.3683 7.96928 11.4609ZM9.00524 7.99805C9.00524 6.62675 7.27164 6.20761 6.88364 6.08849C6.07986 5.84183 5.01038 5.5668 5.01038 5.00195C5.01038 4.46518 5.69256 4.01172 6.5 4.01172C7.1424 4.01172 7.72807 4.30262 7.92435 4.71909C8.04397 4.97269 8.34657 5.0815 8.60028 4.96188C8.85389 4.84227 8.96259 4.53976 8.84308 4.28606C8.44347 3.43835 7.44977 2.99609 6.5 2.99609C5.02238 2.99609 3.99476 3.95697 3.99476 5.00195C3.99476 6.37325 5.72836 6.79239 6.11636 6.91151C6.92014 7.15817 7.98962 7.4332 7.98962 7.99805C7.98962 8.53482 7.30744 8.98828 6.5 8.98828C5.8576 8.98828 5.27193 8.69738 5.07565 8.28091C4.95603 8.02731 4.65343 7.9185 4.39972 8.03812C4.14611 8.15773 4.03741 8.46024 4.15692 8.71394C4.55653 9.56165 5.55023 10.0039 6.5 10.0039C7.97762 10.0039 9.00524 9.04303 9.00524 7.99805Z" fill="url(#paint0_linear)"/>
<defs>
<linearGradient id="paint0_linear" x1="13" y1="-10.4" x2="-0.0450097" y2="-10.3836" gradientUnits="userSpaceOnUse">
<stop stop-color="#F59E27"/>
<stop offset="1" stop-color="#FC5829"/>
</linearGradient>
</defs>
</svg>
