<svg width="15" height="15" viewBox="0 0 15 15" fill="none" xmlns="http://www.w3.org/2000/svg">
<path d="M10.216 14.0168C10.2747 14.0194 10.3308 14.0221 10.3895 14.0221C11.0169 14.0221 11.5402 13.7952 11.9513 13.3493C11.954 13.3467 11.9593 13.3413 11.962 13.3387C12.1088 13.1625 12.2744 13.0023 12.4506 12.8341C12.5707 12.7193 12.6935 12.6018 12.8083 12.479C13.3556 11.9077 13.3529 11.1842 12.803 10.6342L11.2812 9.11247C11.0196 8.84016 10.7072 8.69599 10.3762 8.69599C10.0478 8.69599 9.73278 8.83749 9.46313 9.10713L8.56343 10.0068C8.48334 9.96144 8.40058 9.9214 8.32049 9.88135C8.21904 9.83063 8.1256 9.78257 8.04284 9.73185C7.21789 9.20858 6.47036 8.52513 5.75487 7.64679C5.39446 7.19293 5.15685 6.81383 4.98866 6.42405C5.2236 6.21047 5.44252 5.98888 5.65342 5.77263C5.73085 5.69521 5.80827 5.61512 5.88836 5.53503C6.45968 4.9637 6.45968 4.25623 5.88836 3.68757L5.13283 2.93204C5.04473 2.84394 4.95929 2.75584 4.87386 2.6704C4.70567 2.49954 4.53214 2.32067 4.3586 2.16049C4.09697 1.89885 3.78728 1.7627 3.4589 1.7627C3.1332 1.7627 2.81817 1.89885 2.54586 2.16049L1.5981 3.10557C1.25103 3.45264 1.05347 3.87445 1.01076 4.36301C0.962704 4.97171 1.07483 5.61779 1.36316 6.39735C1.80901 7.6014 2.47911 8.72002 3.47225 9.91606C4.68164 11.3577 6.13398 12.4977 7.79455 13.3013C8.42728 13.603 9.27358 13.9554 10.216 14.0168ZM3.97683 9.49691C3.03175 8.3596 2.39902 7.30239 1.97987 6.17042C1.72091 5.47362 1.6248 4.93167 1.66484 4.41641C1.69421 4.08269 1.82236 3.80504 2.06263 3.56743L3.00505 2.62502C3.14921 2.48619 3.30673 2.41411 3.46157 2.41411C3.61375 2.41411 3.76325 2.48619 3.90742 2.62769C4.07561 2.7852 4.23847 2.95073 4.40933 3.12426C4.49476 3.21236 4.58286 3.30313 4.67363 3.39123L5.42917 4.14677C5.73886 4.45646 5.73886 4.76081 5.42917 5.07049C5.34907 5.15059 5.26898 5.23068 5.19156 5.31077C4.95662 5.54838 4.73771 5.77263 4.49476 5.98888C4.48942 5.99422 4.48675 5.99689 4.48141 6.00223C4.26516 6.21848 4.2972 6.42672 4.35059 6.58156C4.35326 6.58957 4.35593 6.59491 4.3586 6.60292C4.55349 7.07279 4.82848 7.51864 5.25029 8.05259C6.01117 8.98966 6.81209 9.7185 7.69844 10.2818C7.8079 10.3512 7.9227 10.41 8.03483 10.466C8.13628 10.5167 8.22972 10.5648 8.31248 10.6155C8.32316 10.6209 8.33117 10.6262 8.34185 10.6315C8.42728 10.6743 8.51004 10.6956 8.59547 10.6956C8.80638 10.6956 8.93987 10.5621 8.98258 10.5167L9.93034 9.56899C10.0745 9.42483 10.2293 9.35007 10.3815 9.35007C10.5684 9.35007 10.7206 9.46754 10.8194 9.56899L12.3464 11.0961C12.7202 11.4698 12.5493 11.8062 12.3384 12.0278C12.2316 12.1426 12.1195 12.2494 12.002 12.3642C11.8232 12.5351 11.639 12.7139 11.4708 12.9142C11.1824 13.2239 10.8407 13.368 10.3949 13.368C10.3522 13.368 10.3068 13.3654 10.2641 13.3627C9.43377 13.3093 8.66488 12.9863 8.08555 12.7113C6.50507 11.9504 5.12482 10.8692 3.97683 9.49691Z" fill="url(#paint0_linear)" stroke="url(#paint1_linear)" stroke-width="0.5"/>
<path d="M8.14843 3.38333C7.96956 3.35396 7.80136 3.4741 7.772 3.6503C7.74263 3.82917 7.86277 3.99736 8.03897 4.02673C8.77315 4.15221 9.44058 4.49927 9.97453 5.03055C10.5058 5.56183 10.8529 6.23193 10.9783 6.96611C11.005 7.12629 11.1439 7.23842 11.3014 7.23842C11.3201 7.23842 11.3388 7.23575 11.3574 7.23308C11.5363 7.20371 11.6565 7.03285 11.6244 6.85665C11.4776 5.98898 11.0664 5.19607 10.4391 4.56869C9.80633 3.93863 9.01609 3.53016 8.14843 3.38333Z" fill="url(#paint2_linear)" stroke="url(#paint3_linear)" stroke-width="0.5"/>
<path d="M13.6774 7.12612C13.696 7.12612 13.7147 7.12345 13.7334 7.12078C13.9123 7.09141 14.0324 6.92055 14.0004 6.74434C13.7575 5.30803 13.0793 4.00253 12.0408 2.964C10.9996 1.92548 9.69412 1.24736 8.2578 1.00442C8.07893 0.975052 7.91074 1.09519 7.88137 1.27139C7.85201 1.45026 7.97214 1.61846 8.14835 1.64782C9.44851 1.86941 10.6339 2.48345 11.5763 3.42587C12.5187 4.36828 13.1327 5.55364 13.3543 6.8538C13.381 7.01399 13.5198 7.12612 13.6774 7.12612Z" fill="url(#paint4_linear)" stroke="url(#paint5_linear)" stroke-width="0.5"/>
<defs>
<linearGradient id="paint0_linear" x1="13.2171" y1="-8.04486" x2="0.957701" y2="-8.02948" gradientUnits="userSpaceOnUse">
<stop stop-color="#F59E27"/>
<stop offset="1" stop-color="#FC5829"/>
</linearGradient>
<linearGradient id="paint1_linear" x1="13.2171" y1="-8.04486" x2="0.957701" y2="-8.02948" gradientUnits="userSpaceOnUse">
<stop stop-color="#F59E27"/>
<stop offset="1" stop-color="#FC5829"/>
</linearGradient>
<linearGradient id="paint2_linear" x1="11.6296" y1="0.291286" x2="7.75421" y2="0.296171" gradientUnits="userSpaceOnUse">
<stop stop-color="#F59E27"/>
<stop offset="1" stop-color="#FC5829"/>
</linearGradient>
<linearGradient id="paint3_linear" x1="11.6296" y1="0.291286" x2="7.75421" y2="0.296171" gradientUnits="userSpaceOnUse">
<stop stop-color="#F59E27"/>
<stop offset="1" stop-color="#FC5829"/>
</linearGradient>
<linearGradient id="paint4_linear" x1="14.0056" y1="-3.90091" x2="7.85573" y2="-3.89316" gradientUnits="userSpaceOnUse">
<stop stop-color="#F59E27"/>
<stop offset="1" stop-color="#FC5829"/>
</linearGradient>
<linearGradient id="paint5_linear" x1="14.0056" y1="-3.90091" x2="7.85573" y2="-3.89316" gradientUnits="userSpaceOnUse">
<stop stop-color="#F59E27"/>
<stop offset="1" stop-color="#FC5829"/>
</linearGradient>
</defs>
</svg>
