<svg width="22" height="22" viewBox="0 0 22 22" fill="none" xmlns="http://www.w3.org/2000/svg">
<path d="M18.7782 3.22184C16.7005 1.14421 13.9382 0 11 0C8.0618 0 5.29947 1.14426 3.22184 3.22184C1.14421 5.29942 0 8.0618 0 11C0 13.9382 1.14421 16.7005 3.22184 18.7782C5.29942 20.8558 8.0618 22 11 22C13.9382 22 16.7005 20.8558 18.7782 18.7782C20.8558 16.7005 22 13.9382 22 11C22 8.0618 20.8558 5.29942 18.7782 3.22184ZM11 20.2226C5.91465 20.2226 1.77736 16.0854 1.77736 11C1.77736 5.91465 5.91465 1.77736 11 1.77736C16.0854 1.77736 20.2226 5.91465 20.2226 11C20.2226 16.0854 16.0854 20.2226 11 20.2226Z" fill="#44220F"/>
<path d="M14.6618 13.4054L11.8887 10.6323V4.9336C11.8887 4.44281 11.4908 4.04492 11 4.04492C10.5092 4.04492 10.1113 4.44281 10.1113 4.9336V11.0004C10.1113 11.2361 10.205 11.4621 10.3716 11.6288L13.405 14.6622C13.5785 14.8357 13.806 14.9225 14.0334 14.9225C14.2608 14.9225 14.4883 14.8357 14.6618 14.6622C15.0088 14.3151 15.0088 13.7524 14.6618 13.4054Z" fill="#44220F"/>
</svg>
