<svg width="17" height="17" viewBox="0 0 17 17" fill="none" xmlns="http://www.w3.org/2000/svg">
<circle cx="8.5" cy="8.5" r="8" fill="white" stroke="#BDBDBD"/>
<path d="M7.736 10.348C7.736 10.028 7.788 9.748 7.892 9.508C8.004 9.26 8.136 9.052 8.288 8.884C8.448 8.716 8.656 8.516 8.912 8.284C9.232 8.004 9.468 7.764 9.62 7.564C9.772 7.356 9.848 7.108 9.848 6.82C9.848 6.428 9.696 6.116 9.392 5.884C9.088 5.644 8.668 5.524 8.132 5.524C7.196 5.524 6.48 5.84 5.984 6.472L5.108 5.848C5.444 5.416 5.872 5.084 6.392 4.852C6.92 4.62 7.528 4.504 8.216 4.504C9.088 4.504 9.78 4.696 10.292 5.08C10.804 5.456 11.06 5.976 11.06 6.64C11.06 6.968 11.004 7.26 10.892 7.516C10.788 7.764 10.66 7.972 10.508 8.14C10.356 8.308 10.152 8.508 9.896 8.74C9.568 9.036 9.324 9.296 9.164 9.52C9.012 9.744 8.936 10.02 8.936 10.348H7.736ZM8.348 13.072C8.124 13.072 7.936 13 7.784 12.856C7.64 12.704 7.568 12.52 7.568 12.304C7.568 12.088 7.64 11.908 7.784 11.764C7.936 11.612 8.124 11.536 8.348 11.536C8.572 11.536 8.756 11.612 8.9 11.764C9.044 11.908 9.116 12.088 9.116 12.304C9.116 12.52 9.04 12.704 8.888 12.856C8.744 13 8.564 13.072 8.348 13.072Z" fill="#BDBDBD"/>
</svg>
