<svg width="21" height="17" viewBox="0 0 21 17" fill="none" xmlns="http://www.w3.org/2000/svg">
<path d="M18.1753 1H3.39231C2.0727 1 1 2.0727 1 3.39231V13.4959C1 14.8155 2.0727 15.8882 3.39231 15.8882H18.1712C19.4909 15.8882 20.5635 14.8155 20.5635 13.4959V3.39636C20.5676 2.07674 19.4949 1 18.1753 1ZM19.4747 13.4959C19.4747 14.2124 18.8918 14.7953 18.1753 14.7953H3.39231C2.67583 14.7953 2.09294 14.2124 2.09294 13.4959V3.39636C2.09294 2.67988 2.67583 2.09698 3.39231 2.09698H18.1712C18.8877 2.09698 19.4706 2.67988 19.4706 3.39636V13.4959H19.4747Z" fill="#F2C94C" stroke="#F2C94C" stroke-width="0.3"/>
<path d="M13.3381 8.31833L18.1227 4.02755C18.3453 3.82515 18.3656 3.48108 18.1632 3.2544C17.9608 3.03176 17.6167 3.01152 17.39 3.21392L10.7919 9.13601L9.50469 7.9864C9.50064 7.98236 9.49659 7.97831 9.49659 7.97426C9.46826 7.94592 9.43992 7.92164 9.40754 7.89735L4.16954 3.20987C3.94286 3.00747 3.59879 3.02771 3.39639 3.2544C3.194 3.48108 3.21424 3.82515 3.44092 4.02755L8.28222 8.35476L3.46116 12.8682C3.24257 13.0746 3.23043 13.4187 3.43687 13.6413C3.54617 13.7547 3.69189 13.8154 3.83761 13.8154C3.9712 13.8154 4.10478 13.7668 4.21002 13.6697L9.10395 9.09148L10.4317 10.2775C10.5369 10.3706 10.6664 10.4152 10.796 10.4152C10.9255 10.4152 11.0591 10.3666 11.1603 10.2735L12.5244 9.051L17.39 13.6737C17.4953 13.7749 17.6329 13.8235 17.7665 13.8235C17.9122 13.8235 18.0539 13.7668 18.1632 13.6535C18.3696 13.4349 18.3615 13.0868 18.1429 12.8803L13.3381 8.31833Z" fill="#F2C94C" stroke="#F2C94C" stroke-width="0.3"/>
</svg>
