<svg width="22" height="22" viewBox="0 0 22 22" fill="none" xmlns="http://www.w3.org/2000/svg">
<path d="M16.0703 22C14.8736 22 13.7361 21.6516 12.7563 20.9882C9.5822 21.5431 6.24944 20.5904 3.82942 18.1706C1.41058 15.7516 0.456711 12.4191 1.01178 9.24365C0.34845 8.26393 0 7.12643 0 5.92969C0 2.66003 2.66003 0 5.92969 0C7.12643 0 8.26393 0.34845 9.24365 1.01178C16.1628 -0.197723 22.2023 5.81203 20.9882 12.7563C21.6516 13.7361 22 14.8736 22 16.0703C22 19.34 19.34 22 16.0703 22ZM13.4865 19.3954C14.231 19.9749 15.1245 20.2812 16.0703 20.2812C18.3921 20.2812 20.2812 18.3923 20.2812 16.0703C20.2812 15.1245 19.9749 14.231 19.3954 13.4865C19.2393 13.2859 19.1798 13.0266 19.2334 12.7782C20.5218 6.78017 15.1782 1.48695 9.22183 2.76662C8.97359 2.81999 8.7141 2.76074 8.51352 2.60464C7.76895 2.02507 6.8755 1.71875 5.92969 1.71875C3.60786 1.71875 1.71875 3.6077 1.71875 5.92969C1.71875 6.8755 2.02507 7.76895 2.60464 8.51352C2.76074 8.7141 2.82016 8.97342 2.76662 9.22183C1.48108 15.2064 6.80786 20.5159 12.7782 19.2334C13.0254 19.1802 13.2851 19.2386 13.4865 19.3954ZM15.2396 13.5352C15.2396 11.2145 12.3058 10.5052 11.6492 10.3036C10.289 9.88617 8.47911 9.42073 8.47911 8.46484C8.47911 7.55646 9.63356 6.78906 11 6.78906C12.0871 6.78906 13.0783 7.28136 13.4104 7.98615C13.6129 8.41533 14.125 8.59946 14.5543 8.39703C14.9835 8.19461 15.1675 7.68268 14.9652 7.25333C14.289 5.81874 12.6073 5.07031 11 5.07031C8.49942 5.07031 6.76036 6.69641 6.76036 8.46484C6.76036 10.7855 9.69415 11.4948 10.3508 11.6964C11.711 12.1138 13.5209 12.5793 13.5209 13.5352C13.5209 14.4435 12.3664 15.2109 11 15.2109C9.91286 15.2109 8.92172 14.7186 8.58955 14.0139C8.38713 13.5847 7.87503 13.4005 7.44568 13.603C7.01649 13.8054 6.83253 14.3173 7.03479 14.7467C7.71104 16.1813 9.3927 16.9297 11 16.9297C13.5006 16.9297 15.2396 15.3036 15.2396 13.5352Z" fill="#02B3FF"/>
</svg>
