<svg width="21" height="21" viewBox="0 0 21 21" fill="none" xmlns="http://www.w3.org/2000/svg">
<path d="M17.8373 3.78742C16.0397 1.98983 13.6502 1 11.1079 1C11.1077 1 11.1071 1 11.107 1C9.84961 1.00015 8.62427 1.2436 7.46525 1.72377C6.30608 2.20393 5.2676 2.89821 4.37838 3.78742C2.58094 5.58486 1.59111 7.97476 1.59111 10.5168C1.59111 12.0327 1.95689 13.5393 2.64996 14.8815L1.05031 19.4514C0.937567 19.7738 1.01737 20.1241 1.25903 20.3656C1.42806 20.5348 1.65055 20.6247 1.87933 20.6247C1.9774 20.6247 2.07652 20.6082 2.17324 20.5744L6.74313 18.9749C8.08541 19.6679 9.59193 20.0337 11.1079 20.0337C13.6499 20.0337 16.0397 19.0437 17.8373 17.2463C19.6347 15.4488 20.6247 13.0589 20.6247 10.5169C20.6247 7.97476 19.6348 5.58486 17.8373 3.78742ZM17.0234 16.4324C15.4433 18.0126 13.3424 18.8826 11.1079 18.8826C9.74091 18.8826 8.38291 18.5445 7.18062 17.9046C6.96262 17.7887 6.70495 17.7688 6.47362 17.8498L2.32177 19.3029L3.77499 15.151C3.85599 14.9194 3.83593 14.6617 3.72004 14.4439C3.08027 13.2419 2.74204 11.8839 2.74204 10.5168C2.74204 8.28229 3.61224 6.18136 5.19228 4.60132C6.77217 3.02143 8.87281 2.15123 11.1071 2.15093H11.1079C13.3425 2.15093 15.4433 3.02113 17.0234 4.60132C18.6035 6.18136 19.4737 8.28214 19.4737 10.5168C19.4737 12.7514 18.6035 14.8523 17.0234 16.4324Z" fill="#27AE60" stroke="#27AE60" stroke-width="0.5"/>
<path d="M14.6449 11.3669C14.2071 10.9291 13.4947 10.9291 13.0569 11.3669L12.5781 11.8457C11.3891 11.1979 10.427 10.2358 9.77898 9.04679L10.2578 8.56797C10.6957 8.13018 10.6957 7.41779 10.2578 6.98L8.96747 5.68967C8.52968 5.25188 7.81729 5.25188 7.37949 5.68967L6.34729 6.72187C5.75603 7.31313 5.72654 8.32961 6.2642 9.58415C6.73104 10.6734 7.58537 11.8706 8.66982 12.955C9.75427 14.0395 10.9515 14.8938 12.0407 15.3607C12.6368 15.6161 13.1789 15.7435 13.6474 15.7435C14.165 15.7435 14.5926 15.5879 14.903 15.2776L15.9352 14.2452V14.2454C16.1474 14.0332 16.2641 13.7513 16.2641 13.4514C16.2641 13.1513 16.1474 12.8694 15.9352 12.6574L14.6449 11.3669ZM14.0891 14.4637C13.9204 14.6324 13.4014 14.6915 12.4942 14.3029C11.5363 13.8923 10.4671 13.1245 9.48372 12.1411C8.50033 11.1578 7.73269 10.0887 7.32215 9.13079C6.93332 8.22361 6.99246 7.70451 7.1612 7.53577L8.17363 6.52334L9.42413 7.77399L8.82478 8.37348C8.55378 8.64448 8.48835 9.05548 8.66218 9.39625C9.45018 10.9414 10.6835 12.1747 12.2286 12.9627C12.5695 13.1365 12.9805 13.0712 13.2515 12.8001L13.8509 12.2007L15.1015 13.4514L14.0891 14.4637Z" fill="#27AE60" stroke="#27AE60" stroke-width="0.5"/>
</svg>
