<svg width="20" height="20" viewBox="0 0 20 20" fill="none" xmlns="http://www.w3.org/2000/svg">
<path d="M10.23 3.85427L10.2298 3.85427C10.0296 3.84774 9.87268 3.68032 9.8791 3.47962C9.88651 3.26845 10.0652 3.11339 10.2422 3.12798L10.2422 3.12828L10.2545 3.12868C13.3188 3.22981 15.9769 5.97044 15.9394 8.97407C15.9368 9.17363 15.7744 9.3331 15.5761 9.3331H15.5761H15.5761H15.5761H15.5761H15.5761H15.576H15.576H15.576H15.576H15.576H15.576H15.576H15.5759H15.5759H15.5759H15.5759H15.5759H15.5759H15.5759H15.5758H15.5758H15.5758H15.5758H15.5758H15.5758H15.5757H15.5757H15.5757H15.5757H15.5757H15.5757H15.5757H15.5756H15.5756H15.5756H15.5756H15.5756H15.5756H15.5756H15.5755H15.5755H15.5755H15.5755H15.5755H15.5755H15.5755H15.5754H15.5754H15.5754H15.5754H15.5754H15.5754H15.5753H15.5753H15.5753H15.5753H15.5753H15.5753H15.5753H15.5752H15.5752H15.5752H15.5752H15.5752H15.5752H15.5752H15.5751H15.5751H15.5751H15.5751H15.5751H15.5751H15.575H15.575H15.575H15.575H15.575H15.575H15.575H15.5749H15.5749H15.5749H15.5749H15.5749H15.5749H15.5748H15.5748H15.5748H15.5748H15.5748H15.5748H15.5748H15.5747H15.5747H15.5747H15.5747H15.5747H15.5747H15.5746H15.5746H15.5746H15.5746H15.5746H15.5746H15.5746H15.5745H15.5745H15.5745H15.5745H15.5745H15.5745H15.5744H15.5744H15.5744H15.5744H15.5744H15.5744H15.5743H15.5743H15.5743H15.5743H15.5743H15.5743H15.5743H15.5742H15.5742H15.5742H15.5742H15.5742H15.5742H15.5741H15.5741H15.5741H15.5741H15.5741H15.5741H15.574H15.574H15.574H15.574H15.574H15.574H15.574H15.5739H15.5739H15.5739H15.5739H15.5739H15.5739H15.5738H15.5738H15.5738H15.5738H15.5738H15.5738H15.5737H15.5737H15.5737H15.5737H15.5737H15.5737H15.5737H15.5736H15.5736H15.5736H15.5736H15.5736H15.5736H15.5735H15.5735H15.5735H15.5735H15.5735H15.5735H15.5734H15.5734H15.5734H15.5734H15.5734H15.5734H15.5733H15.5733H15.5733H15.5733H15.5733H15.5733H15.5733H15.5732H15.5732H15.5732H15.5732H15.5732H15.5732H15.5731H15.5731H15.5731H15.5731H15.5731H15.5731H15.573H15.573H15.573H15.573H15.573H15.573H15.5729H15.5729H15.5729H15.5729H15.5729H15.5729H15.5729H15.5728H15.5728H15.5728H15.5728H15.5728H15.5728H15.5727H15.5727H15.5727H15.5727H15.5727H15.5727H15.5726H15.5726H15.5726H15.5726H15.5726H15.5726H15.5725H15.5725H15.5725H15.5725H15.5725H15.5725H15.5724H15.5724H15.5724H15.5724H15.5724H15.5724H15.5724H15.5723H15.5723H15.5723H15.5723H15.5723H15.5723H15.5722H15.5722H15.5722H15.5722H15.5722H15.5722H15.5721H15.5721H15.5721H15.5721H15.5721H15.5721H15.572H15.572H15.572H15.572H15.572H15.572H15.5719H15.5719H15.5719H15.5719H15.5719H15.5719H15.5719H15.5718H15.5718H15.5718H15.5718H15.5718H15.5718H15.5717H15.5717H15.5717H15.5717H15.5717H15.5717H15.5716H15.5716H15.5716H15.5716H15.5716H15.5716H15.5715H15.5715H15.5715H15.5715H15.5715H15.5715H15.5714H15.5714H15.5714H15.5714H15.5714H15.5714H15.5713H15.5713H15.5713H15.5713H15.5713H15.5713H15.5713H15.5712H15.5712H15.5712H15.5712H15.5712H15.5712H15.5711H15.5711H15.5711H15.5711H15.5711H15.5711H15.571H15.571H15.571H15.571H15.571H15.571H15.5709H15.5709H15.5709H15.5709H15.5709H15.5709H15.5709H15.5708H15.5708H15.5708H15.5708H15.5708H15.5708H15.5707H15.5707H15.5707H15.5707H15.5707H15.5707H15.5706H15.5706H15.5706H15.5706H15.5706H15.5706H15.5705H15.5705H15.5705H15.5705H15.5705H15.5705H15.5705H15.5704H15.5704H15.5704H15.5704H15.5704H15.5704H15.5703H15.5703H15.5703H15.5703H15.5703H15.5703H15.5702H15.5702H15.5702H15.5702H15.5702H15.5702H15.5702H15.5701H15.5701H15.5701H15.5701H15.5701H15.5701H15.57H15.57H15.57H15.57H15.57H15.57H15.5699C15.3698 9.32982 15.2097 9.16536 15.2122 8.96502L15.2122 8.96497C15.2285 7.65795 14.6371 6.40295 13.7241 5.46745C12.8109 4.53179 11.5593 3.89842 10.23 3.85427ZM10.2217 4.10414C12.733 4.18754 14.9929 6.50264 14.9622 8.96185L10.2217 4.10414Z" fill="#9B51E0" stroke="#9B51E0" stroke-width="0.5"/>
<path d="M14.1147 9.06808L13.8647 9.06581C13.8629 9.26517 13.7005 9.42584 13.5014 9.42584H13.5014H13.5014H13.5014H13.5014H13.5014H13.5014H13.5014H13.5014H13.5013H13.5013H13.5013H13.5013H13.5013H13.5013H13.5013H13.5013H13.5013H13.5013H13.5012H13.5012H13.5012H13.5012H13.5012H13.5012H13.5012H13.5012H13.5012H13.5011H13.5011H13.5011H13.5011H13.5011H13.5011H13.5011H13.5011H13.5011H13.501H13.501H13.501H13.501H13.501H13.501H13.501H13.501H13.501H13.501H13.5009H13.5009H13.5009H13.5009H13.5009H13.5009H13.5009H13.5009H13.5009H13.5008H13.5008H13.5008H13.5008H13.5008H13.5008H13.5008H13.5008H13.5008H13.5007H13.5007H13.5007H13.5007H13.5007H13.5007H13.5007H13.5007H13.5007H13.5006H13.5006H13.5006H13.5006H13.5006H13.5006H13.5006H13.5006H13.5006H13.5006H13.5005H13.5005H13.5005H13.5005H13.5005H13.5005H13.5005H13.5005H13.5005H13.5004H13.5004H13.5004H13.5004H13.5004H13.5004H13.5004H13.5004H13.5004H13.5003H13.5003H13.5003H13.5003H13.5003H13.5003H13.5003H13.5003H13.5003H13.5003H13.5002H13.5002H13.5002H13.5002H13.5002H13.5002H13.5002H13.5002H13.5002H13.5001H13.5001H13.5001H13.5001H13.5001H13.5001H13.5001H13.5001H13.5001H13.5H13.5H13.5H13.5H13.5H13.5H13.5H13.5H13.5H13.4999H13.4999H13.4999H13.4999H13.4999H13.4999H13.4999H13.4999H13.4999H13.4999H13.4998H13.4998H13.4998H13.4998H13.4998H13.4998H13.4998H13.4998H13.4998H13.4997H13.4997H13.4997H13.4997H13.4997H13.4997H13.4997H13.4997H13.4997H13.4996H13.4996H13.4996H13.4996H13.4996H13.4996H13.4996H13.4996H13.4996H13.4995H13.4995H13.4995H13.4995H13.4995H13.4995H13.4995H13.4995H13.4995H13.4995H13.4994H13.4994H13.4994H13.4994H13.4994H13.4994H13.4994H13.4994H13.4994H13.4993H13.4993H13.4993H13.4993H13.4993H13.4993H13.4993H13.4993H13.4993H13.4992H13.4992H13.4992H13.4992H13.4992H13.4992H13.4992H13.4992H13.4992H13.4992H13.4991H13.4991H13.4991H13.4991H13.4991H13.4991H13.4991H13.4991H13.4991H13.499H13.499H13.499H13.499H13.499H13.499H13.499H13.499H13.499H13.4989H13.4989H13.4989H13.4989H13.4989H13.4989H13.4989H13.4989H13.4989H13.4988H13.4988H13.4988H13.4988H13.4988H13.4988H13.4988H13.4988H13.4988H13.4988H13.4987H13.4987H13.4987H13.4987H13.4987H13.4987H13.4987H13.4987H13.4987H13.4986H13.4986H13.4986H13.4986H13.4986H13.4986H13.4986H13.4986H13.4986H13.4985H13.4985H13.4985H13.4985H13.4985H13.4985H13.4985H13.4985H13.4985H13.4984H13.4984H13.4984H13.4984H13.4984H13.4984H13.4984H13.4984H13.4984H13.4984H13.4983H13.4983H13.4983H13.4983H13.4983H13.4983H13.4983H13.4983H13.4983H13.4982H13.4982H13.4982H13.4982H13.4982H13.4982H13.4982H13.4982H13.4982H13.4981H13.4981H13.4981H13.4981H13.4981H13.4981H13.4981H13.4981H13.4981H13.4981H13.498H13.498H13.498H13.498H13.498H13.498H13.498H13.498H13.498H13.4979H13.4979H13.4979H13.4979H13.4979H13.4979H13.4979H13.4979H13.4979H13.4978H13.4978H13.4978H13.4978H13.4978H13.4978H13.4978H13.4978H13.4978H13.4977H13.4977H13.4977H13.4977H13.4977H13.4977H13.4977H13.4977H13.4977H13.4977H13.4976H13.4976H13.4976H13.4976H13.4976H13.4976H13.4976H13.4976H13.4976H13.4975H13.4975H13.4975H13.4975H13.4975H13.4975H13.4975H13.4975H13.4975H13.4974H13.4974H13.4974H13.4974H13.4974H13.4974H13.4974H13.4974H13.4974H13.4973H13.4973H13.4973H13.4973H13.4973H13.4973H13.4973H13.4973H13.4973H13.4973H13.4972H13.4972H13.4972H13.4972H13.4972H13.4972H13.4972C13.297 9.42348 13.1364 9.25985 13.1382 9.05931L13.1382 9.0592C13.1517 7.49031 11.7749 6.09347 10.1069 5.89635L10.1066 5.89631C9.90835 5.87316 9.76542 5.6926 9.78862 5.49308C9.81254 5.29198 9.99566 5.15012 10.1897 5.17469L10.1918 5.17495C12.2439 5.41685 13.8807 7.17893 13.8647 9.06597L14.1147 9.06808ZM14.1147 9.06808C14.1319 7.03938 12.3853 5.18179 10.2211 4.92667L12.8882 9.05704C12.8851 9.39618 13.1574 9.67277 13.4959 9.67584H13.5014C13.8375 9.67584 14.1117 9.40477 14.1147 9.06808Z" fill="#9B51E0" stroke="#9B51E0" stroke-width="0.5"/>
<path d="M7.96605 8.11338L7.8275 7.90529C7.70445 7.98722 7.5469 8.10177 7.48547 8.29852C7.42471 8.49318 7.47705 8.70239 7.57244 8.9255L7.58269 8.94949L7.59768 8.97084L8.67029 10.4991L8.68481 10.5198L8.70317 10.5372C9.16416 10.973 9.72662 11.3381 10.3723 11.6247C10.5659 11.7108 10.7471 11.7532 10.912 11.6992C11.0694 11.6476 11.1527 11.5233 11.1897 11.468C11.192 11.4645 11.1942 11.4612 11.1962 11.4583L11.1968 11.4574C11.5172 10.9817 11.89 10.7218 12.2989 10.644L12.299 10.644C12.7336 10.5612 13.2347 10.6869 13.7976 11.0742L13.7978 11.0743L14.0149 11.2233L14.0153 11.2236C14.3419 11.4468 14.6717 11.6728 14.9859 11.9206L14.9859 11.9206L14.9889 11.923L15.1656 12.0579L15.1656 12.0579L15.1675 12.0594C15.4135 12.2435 15.6969 12.4587 15.8778 12.7543C16.0486 13.0332 16.1359 13.3975 15.9512 13.9092L15.9511 13.9094C15.7859 14.3688 15.4062 14.8716 14.9114 15.2601C14.4166 15.6485 13.8346 15.9009 13.2782 15.9009C13.235 15.9009 13.1993 15.8967 13.1702 15.8888L13.1703 15.8886L13.1595 15.8861L13.0559 15.8628L13.0553 15.8627L13.0481 15.8611C12.8949 15.827 12.6911 15.7816 12.495 15.6987L12.4948 15.6986C8.21972 13.8939 5.20278 10.9169 3.51278 6.84617L3.51274 6.84608C3.19908 6.09145 3.19475 5.37754 3.47241 4.77084C3.76252 4.13699 4.3459 3.64547 5.19154 3.3661L5.19228 3.36585C5.53782 3.25049 5.87122 3.2543 6.19158 3.36998L6.19194 3.37011C6.344 3.42476 6.57383 3.59099 6.84864 3.85907C7.11574 4.11963 7.40163 4.45267 7.66577 4.80604C7.9299 5.15943 8.16825 5.52776 8.34226 5.85741C8.52133 6.19665 8.61515 6.46352 8.62407 6.62406C8.66338 7.33463 8.14414 7.69378 7.82719 7.90549L7.96605 8.11338ZM7.96605 8.11338C8.27637 7.90609 8.92153 7.47496 8.87369 6.61025L12.2522 10.3984C11.7622 10.4916 11.3372 10.8013 10.9895 11.3177L10.989 11.3185C10.907 11.439 10.8287 11.5541 10.4737 11.3962C9.85063 11.1196 9.31279 10.7695 8.87492 10.3555L7.80231 8.82723C7.62139 8.40407 7.72013 8.27712 7.96605 8.11338ZM15.2667 13.663C15.2915 13.5945 15.3195 13.5102 15.3251 13.4205C15.3314 13.319 15.3088 13.2229 15.2548 13.1301C15.2056 13.0457 15.134 12.9703 15.0526 12.8974C14.9697 12.8232 14.8629 12.7396 14.7313 12.641L14.5814 12.8411L14.732 12.6415C14.7157 12.6292 14.6997 12.6172 14.6841 12.6055C14.6323 12.5666 14.5837 12.5301 14.5358 12.492L14.5352 12.4916C14.2324 12.2523 13.9137 12.0347 13.6039 11.8234C13.6039 11.8233 13.6038 11.8233 13.6037 11.8232L13.3845 11.673C13.3845 11.673 13.3845 11.673 13.3844 11.673C13.2685 11.5931 13.1212 11.5026 12.965 11.4377C12.814 11.375 12.6233 11.3227 12.434 11.3584L12.4332 11.3586C12.1761 11.408 11.9678 11.6131 11.799 11.8642C11.5945 12.1675 11.3413 12.3461 11.0624 12.4166C10.7815 12.4875 10.4487 12.4553 10.0772 12.2891L10.0767 12.2888C9.32668 11.9554 8.68061 11.5279 8.1552 11.019C8.13982 11.0039 8.12444 10.9858 8.10947 10.9649C8.10932 10.9647 8.10918 10.9645 8.10904 10.9643L6.96868 9.33921L6.96828 9.33864C6.95435 9.31891 6.94416 9.30098 6.93657 9.28366L6.93658 9.28365L6.93536 9.28095C6.67194 8.69923 6.70847 8.2768 6.83671 7.974C6.9692 7.66117 7.21468 7.44086 7.42461 7.30091L7.42469 7.30085C7.60032 7.18367 7.7223 7.08644 7.79715 6.99004C7.83805 6.93737 7.86865 6.88048 7.88538 6.81678C7.90181 6.75422 7.90075 6.69998 7.89852 6.66363L7.89778 6.65151L7.89586 6.63953C7.88092 6.5459 7.84034 6.44235 7.79436 6.34447C7.74629 6.24217 7.68351 6.1279 7.61166 6.00816C7.4678 5.76841 7.28063 5.49518 7.08374 5.23253C6.88687 4.9699 6.67705 4.71355 6.4869 4.50838C6.39193 4.4059 6.29952 4.31365 6.21428 4.23896C6.13278 4.16755 6.04377 4.09955 5.95658 4.05945L5.94821 4.05559L5.93958 4.05237C5.86214 4.02345 5.78106 4.00774 5.69511 4.00774C5.60069 4.00774 5.50931 4.02682 5.42104 4.05574L5.42058 4.05589C4.81479 4.25563 4.35166 4.59742 4.13338 5.07345C3.92972 5.51759 3.9648 6.04019 4.18304 6.56676L4.1831 6.56692C5.79874 10.4573 8.6951 13.3056 12.7774 15.029C12.9163 15.0876 13.082 15.1241 13.1954 15.1491L13.206 15.1514C13.2064 15.1515 13.2068 15.1516 13.2072 15.1517C13.2318 15.1574 13.2556 15.1626 13.2787 15.1674L13.3107 15.174L13.3433 15.1721C13.7267 15.1503 14.1419 14.9453 14.4818 14.678C14.8236 14.4092 15.1289 14.0465 15.2667 13.663ZM15.2667 13.663C15.2667 13.6631 15.2667 13.6632 15.2666 13.6632L15.0315 13.5782L15.2668 13.6628C15.2668 13.6629 15.2668 13.6629 15.2667 13.663Z" fill="#9B51E0" stroke="#9B51E0" stroke-width="0.5"/>
<path d="M5.09996 0.25H13.9114C16.538 0.25 18.7614 2.474 18.7614 5.09996V13.9102C18.7614 16.5374 16.5373 18.7614 13.9114 18.7614H5.09996C2.47345 18.7614 0.25 16.5374 0.25 13.9108V5.09996C0.25 2.474 2.47343 0.25 5.09996 0.25ZM13.9114 18.0342C16.1494 18.0342 18.0349 16.1481 18.0349 13.9102V5.09996C18.0349 2.86202 16.1487 0.976542 13.9114 0.976542H5.09996C2.86266 0.976542 0.976542 2.86266 0.976542 5.09996V13.9102C0.976542 16.1487 2.86266 18.0342 5.09996 18.0342H13.9114Z" fill="#9B51E0" stroke="#9B51E0" stroke-width="0.5"/>
</svg>
