<svg width="21" height="21" viewBox="0 0 21 21" fill="none" xmlns="http://www.w3.org/2000/svg">
<path d="M14.4623 20.0144C14.5481 20.0183 14.63 20.0222 14.7158 20.0222C15.6322 20.0222 16.3966 19.6907 16.9972 19.0395C17.0011 19.0356 17.0089 19.0278 17.0128 19.0239C17.2272 18.7665 17.469 18.5325 17.7264 18.2868C17.9019 18.1191 18.0813 17.9475 18.249 17.7681C19.0485 16.9336 19.0446 15.8767 18.2412 15.0733L16.0183 12.8504C15.6361 12.4527 15.1798 12.2421 14.6963 12.2421C14.2166 12.2421 13.7564 12.4488 13.3625 12.8426L12.0483 14.1569C11.9313 14.0906 11.8104 14.0321 11.6934 13.9736C11.5452 13.8995 11.4087 13.8293 11.2878 13.7552C10.0828 12.9908 8.99084 11.9925 7.94569 10.7095C7.41921 10.0465 7.07213 9.49271 6.82644 8.92334C7.16963 8.61135 7.48941 8.28767 7.7975 7.97178C7.91059 7.85869 8.02368 7.74169 8.14068 7.6247C8.97524 6.79014 8.97524 5.75669 8.14068 4.92602L7.03703 3.82238C6.90834 3.69368 6.78354 3.56499 6.65875 3.44019C6.41306 3.19061 6.15957 2.92932 5.90609 2.69533C5.5239 2.31315 5.07152 2.11426 4.59185 2.11426C4.11607 2.11426 3.65589 2.31315 3.25811 2.69533L1.87368 4.07586C1.3667 4.58284 1.07811 5.19901 1.01572 5.91268C0.945519 6.80184 1.10931 7.74559 1.53049 8.88434C2.18176 10.6432 3.16061 12.2772 4.61135 14.0243C6.37796 16.1302 8.49946 17.7954 10.9251 18.9693C11.8494 19.4099 13.0856 19.9247 14.4623 20.0144ZM5.34841 13.412C3.96788 11.7507 3.04362 10.2064 2.43135 8.55285C2.05307 7.535 1.91267 6.74334 1.97117 5.99067C2.01407 5.5032 2.20126 5.09762 2.55224 4.75053L3.92888 3.3739C4.13947 3.17111 4.36956 3.06581 4.59575 3.06581C4.81804 3.06581 5.03643 3.17111 5.24702 3.3778C5.4927 3.60789 5.73059 3.84968 5.98018 4.10316C6.10498 4.23186 6.23367 4.36445 6.36626 4.49315L7.46991 5.59679C7.92229 6.04917 7.92229 6.49375 7.46991 6.94613C7.35292 7.06312 7.23592 7.18012 7.12283 7.29711C6.77964 7.6442 6.45986 7.97178 6.10498 8.28767C6.09718 8.29546 6.09328 8.29937 6.08548 8.30716C5.76959 8.62305 5.81639 8.92724 5.89439 9.15342C5.89829 9.16512 5.90218 9.17292 5.90609 9.18462C6.19077 9.87099 6.59245 10.5223 7.20862 11.3022C8.32007 12.6711 9.49002 13.7357 10.7848 14.5586C10.9446 14.66 11.1123 14.7458 11.2761 14.8277C11.4243 14.9018 11.5608 14.9719 11.6817 15.046C11.6973 15.0538 11.709 15.0616 11.7246 15.0694C11.8494 15.1318 11.9703 15.163 12.0951 15.163C12.4032 15.163 12.5982 14.968 12.6606 14.9018L14.045 13.5173C14.2556 13.3067 14.4818 13.1975 14.7041 13.1975C14.9771 13.1975 15.1993 13.3691 15.3436 13.5173L17.5743 15.748C18.1203 16.294 17.8707 16.7854 17.5626 17.109C17.4066 17.2767 17.2428 17.4327 17.0713 17.6004C16.81 17.85 16.5409 18.1113 16.2952 18.4038C15.874 18.8562 15.3748 19.0668 14.7236 19.0668C14.6612 19.0668 14.5949 19.0629 14.5325 19.059C13.3196 18.981 12.1965 18.5091 11.3502 18.1074C9.04154 16.996 7.02533 15.4165 5.34841 13.412Z" fill="url(#paint0_linear)" stroke="url(#paint1_linear)" stroke-width="0.5"/>
<path d="M11.4435 4.48106C11.1822 4.43817 10.9366 4.61366 10.8937 4.87105C10.8508 5.13233 11.0263 5.37802 11.2836 5.42092C12.3561 5.60421 13.331 6.11119 14.111 6.88725C14.8871 7.66331 15.3941 8.64217 15.5773 9.71462C15.6163 9.94861 15.8191 10.1124 16.0492 10.1124C16.0765 10.1124 16.1038 10.1085 16.1311 10.1046C16.3924 10.0617 16.5679 9.81211 16.5211 9.55473C16.3066 8.28729 15.706 7.12904 14.7896 6.21258C13.8653 5.29223 12.711 4.69555 11.4435 4.48106Z" fill="url(#paint2_linear)" stroke="url(#paint3_linear)" stroke-width="0.5"/>
<path d="M19.5203 9.94873C19.5476 9.94873 19.5749 9.94483 19.6022 9.94093C19.8635 9.89804 20.039 9.64845 19.9922 9.39106C19.6373 7.29296 18.6468 5.38595 17.1297 3.86892C15.6088 2.35189 13.7018 1.36134 11.6037 1.00646C11.3424 0.963557 11.0967 1.13905 11.0538 1.39644C11.0109 1.65772 11.1864 1.90341 11.4438 1.94631C13.343 2.27 15.0745 3.16695 16.4512 4.54359C17.8278 5.92022 18.7248 7.65174 19.0484 9.55095C19.0874 9.78494 19.2902 9.94873 19.5203 9.94873Z" fill="url(#paint4_linear)" stroke="url(#paint5_linear)" stroke-width="0.5"/>
<defs>
<linearGradient id="paint0_linear" x1="18.8462" y1="-12.2121" x2="0.938211" y2="-12.1897" gradientUnits="userSpaceOnUse">
<stop stop-color="#F59E27"/>
<stop offset="1" stop-color="#FC5829"/>
</linearGradient>
<linearGradient id="paint1_linear" x1="18.8462" y1="-12.2121" x2="0.938211" y2="-12.1897" gradientUnits="userSpaceOnUse">
<stop stop-color="#F59E27"/>
<stop offset="1" stop-color="#FC5829"/>
</linearGradient>
<linearGradient id="paint2_linear" x1="16.5287" y1="-0.0356358" x2="10.8677" y2="-0.0285007" gradientUnits="userSpaceOnUse">
<stop stop-color="#F59E27"/>
<stop offset="1" stop-color="#FC5829"/>
</linearGradient>
<linearGradient id="paint3_linear" x1="16.5287" y1="-0.0356358" x2="10.8677" y2="-0.0285007" gradientUnits="userSpaceOnUse">
<stop stop-color="#F59E27"/>
<stop offset="1" stop-color="#FC5829"/>
</linearGradient>
<linearGradient id="paint4_linear" x1="19.9998" y1="-6.15901" x2="11.0164" y2="-6.14769" gradientUnits="userSpaceOnUse">
<stop stop-color="#F59E27"/>
<stop offset="1" stop-color="#FC5829"/>
</linearGradient>
<linearGradient id="paint5_linear" x1="19.9998" y1="-6.15901" x2="11.0164" y2="-6.14769" gradientUnits="userSpaceOnUse">
<stop stop-color="#F59E27"/>
<stop offset="1" stop-color="#FC5829"/>
</linearGradient>
</defs>
</svg>
