<svg width="35" height="35" viewBox="0 0 35 35" fill="none" xmlns="http://www.w3.org/2000/svg"><circle cx="17.5" cy="17.5" r="17" fill="#fff" stroke="#44220F"/><g clip-path="url(#a)"><path d="M18.979 15.558a.091.091 0 0 0 .022.04c.012.014.022.015.026.015h2.564a.302.302 0 0 0-.023-.015l-2.589-.04zm0 0h2.434c.06 0 .112.015.154.04l-2.588-.04zm-3.411 3.491c.009.01.017.023.021.041h-2.086a.3.3 0 0 1-.169-.055h2.207c.004 0 .014 0 .027.014zm-1.893-3.436h-.34a.3.3 0 0 1 .168-.055h2.086a.091.091 0 0 1-.021.04c-.013.014-.023.015-.027.015h-1.866zm2.948-4.952c-.5.545-.822 1.252-.957 2.071.14-.865.48-1.587.984-2.134.675-.732 1.627-1.133 2.789-1.133l2.08.003a.3.3 0 0 1 .168.056h-.34l-1.908-.004c-1.15 0-2.128.392-2.816 1.14zm4.895 2.14l-1.4.001c-.463 0-.77.092-.943.297v.001a.821.821 0 0 0-.164.375 1.5 1.5 0 0 0-.012.07c.029-.207.088-.374.195-.502.197-.237.54-.296.923-.296h1.229l.34-.001a.3.3 0 0 1-.168.055zm-.27 6.234h.34a.3.3 0 0 1-.169.055h-2.44a.092.092 0 0 1 .022-.04c.012-.014.022-.015.026-.015h2.22zm-2.772 7.375h.34a.3.3 0 0 1-.168.055H15.92a.3.3 0 0 1-.168-.055h2.724z" stroke="#44220F"/></g><defs><clipPath id="a"><path transform="translate(9 9)" d="M0 0h17v18H0z"/></clipPath></defs></svg>
