<svg width="35" height="35" fill="none" xmlns="http://www.w3.org/2000/svg"><circle cx="17.5" cy="17.5" r="17" fill="#fff" stroke="#44220F"/><mask id="a" fill="#fff"><path d="M11.49 26h12.02A2.493 2.493 0 0 0 26 23.51V11.49A2.493 2.493 0 0 0 23.51 9H11.49A2.493 2.493 0 0 0 9 11.49v12.02A2.493 2.493 0 0 0 11.49 26zM9.996 11.49c0-.824.67-1.494 1.494-1.494h12.02c.824 0 1.494.67 1.494 1.494v12.02c0 .824-.67 1.494-1.494 1.494H11.49c-.824 0-1.494-.67-1.494-1.494V11.49z"/></mask><path d="M11.49 26h12.02A2.493 2.493 0 0 0 26 23.51V11.49A2.493 2.493 0 0 0 23.51 9H11.49A2.493 2.493 0 0 0 9 11.49v12.02A2.493 2.493 0 0 0 11.49 26zM9.996 11.49c0-.824.67-1.494 1.494-1.494h12.02c.824 0 1.494.67 1.494 1.494v12.02c0 .824-.67 1.494-1.494 1.494H11.49c-.824 0-1.494-.67-1.494-1.494V11.49z" fill="#F59E27"/><path d="M11.49 27h12.02v-2H11.49v2zm12.02 0A3.493 3.493 0 0 0 27 23.51h-2c0 .82-.67 1.49-1.49 1.49v2zM27 23.51V11.49h-2v12.02h2zm0-12.02A3.493 3.493 0 0 0 23.51 8v2c.82 0 1.49.67 1.49 1.49h2zM23.51 8H11.49v2h12.02V8zM11.49 8A3.493 3.493 0 0 0 8 11.49h2c0-.82.67-1.49 1.49-1.49V8zM8 11.49v12.02h2V11.49H8zm0 12.02A3.493 3.493 0 0 0 11.49 27v-2c-.82 0-1.49-.67-1.49-1.49H8zm2.996-12.02c0-.271.223-.494.494-.494v-2a2.496 2.496 0 0 0-2.494 2.494h2zm.494-.494h12.02v-2H11.49v2zm12.02 0c.271 0 .494.223.494.494h2a2.496 2.496 0 0 0-2.494-2.494v2zm.494.494v12.02h2V11.49h-2zm0 12.02a.496.496 0 0 1-.494.494v2a2.496 2.496 0 0 0 2.494-2.494h-2zm-.494.494H11.49v2h12.02v-2zm-12.02 0a.496.496 0 0 1-.494-.494h-2a2.496 2.496 0 0 0 2.494 2.494v-2zm-.494-.494V11.49h-2v12.02h2z" fill="#44220F" mask="url(#a)"/><mask id="b" fill="#fff"><path d="M17.5 21.982a4.487 4.487 0 0 0 4.482-4.482 4.487 4.487 0 0 0-4.482-4.482 4.487 4.487 0 0 0-4.482 4.482 4.487 4.487 0 0 0 4.482 4.482zm0-7.968a3.49 3.49 0 0 1 3.486 3.486 3.49 3.49 0 0 1-3.486 3.486 3.49 3.49 0 0 1-3.486-3.486 3.49 3.49 0 0 1 3.486-3.486z"/></mask><path d="M17.5 21.982a4.487 4.487 0 0 0 4.482-4.482 4.487 4.487 0 0 0-4.482-4.482 4.487 4.487 0 0 0-4.482 4.482 4.487 4.487 0 0 0 4.482 4.482zm0-7.968a3.49 3.49 0 0 1 3.486 3.486 3.49 3.49 0 0 1-3.486 3.486 3.49 3.49 0 0 1-3.486-3.486 3.49 3.49 0 0 1 3.486-3.486z" fill="#F59E27"/><path d="M17.5 22.982a5.488 5.488 0 0 0 5.482-5.482h-2a3.488 3.488 0 0 1-3.482 3.482v2zm5.482-5.482a5.488 5.488 0 0 0-5.482-5.482v2a3.488 3.488 0 0 1 3.482 3.482h2zM17.5 12.018a5.488 5.488 0 0 0-5.482 5.482h2a3.488 3.488 0 0 1 3.482-3.482v-2zM12.018 17.5a5.488 5.488 0 0 0 5.482 5.482v-2a3.488 3.488 0 0 1-3.482-3.482h-2zm5.482-2.486a2.49 2.49 0 0 1 2.486 2.486h2a4.49 4.49 0 0 0-4.486-4.486v2zm2.486 2.486a2.49 2.49 0 0 1-2.486 2.486v2a4.49 4.49 0 0 0 4.486-4.486h-2zM17.5 19.986a2.49 2.49 0 0 1-2.486-2.486h-2a4.49 4.49 0 0 0 4.486 4.486v-2zM15.014 17.5a2.49 2.49 0 0 1 2.486-2.486v-2a4.49 4.49 0 0 0-4.486 4.486h2z" fill="#44220F" mask="url(#b)"/><mask id="c" fill="#fff"><path d="M22.48 14.014c.824 0 1.495-.67 1.495-1.494s-.67-1.495-1.495-1.495c-.823 0-1.494.67-1.494 1.495 0 .823.67 1.494 1.494 1.494zm0-1.992a.499.499 0 1 1 0 .997.499.499 0 0 1 0-.998z"/></mask><path d="M22.48 14.014c.824 0 1.495-.67 1.495-1.494s-.67-1.495-1.495-1.495c-.823 0-1.494.67-1.494 1.495 0 .823.67 1.494 1.494 1.494zm0-1.992a.499.499 0 1 1 0 .997.499.499 0 0 1 0-.998z" fill="#F59E27"/><path d="M22.48 15.014a2.496 2.496 0 0 0 2.495-2.494h-2a.496.496 0 0 1-.495.494v2zm2.495-2.494a2.496 2.496 0 0 0-2.495-2.495v2c.272 0 .495.223.495.495h2zm-2.495-2.495a2.496 2.496 0 0 0-2.494 2.495h2c0-.272.223-.495.494-.495v-2zm-2.494 2.495a2.496 2.496 0 0 0 2.494 2.494v-2a.496.496 0 0 1-.494-.494h-2zm2.494.502a.501.501 0 0 1-.502-.502h2c0-.827-.67-1.498-1.498-1.498v2zm-.502-.502c0-.278.225-.502.502-.502v2a1.5 1.5 0 0 0 1.498-1.498h-2zm.502-.502c.278 0 .502.224.502.502h-2a1.5 1.5 0 0 0 1.498 1.498v-2zm.502.502a.501.501 0 0 1-.502.502v-2c-.826 0-1.498.67-1.498 1.498h2z" fill="#44220F" mask="url(#c)"/></svg>