<svg width="35" height="35" viewBox="0 0 35 35" fill="none" xmlns="http://www.w3.org/2000/svg"><circle cx="17.5" cy="17.5" r="17" fill="#fff" stroke="#44220F"/><g clip-path="url(#a)"><path d="M27.439 22.689h-3.021c-.15 0-.378-.02-.612-.06a2.312 2.312 0 0 1-.56-.154c-.557-.27-.913-.68-1.322-1.16l-.017-.021c-.268-.315-.567-.666-.951-.939l-.29.408c-.116-.083-.22-.124-.28-.111l-.105-.489a.79.79 0 0 0-.38.221 1.573 1.573 0 0 0-.26.355l-.001.002-.006.01a3.29 3.29 0 0 0-.25.536c-.124.362-.17.801-.17 1.344v.058h-.086c-2.774 0-4.802-.967-6.447-2.82-1.514-1.703-2.665-4.1-3.949-7.265l-.028-.07h3.68c.045.111.098.244.28.74l.006.016c.27.733.65 1.763 1.086 2.64l13.684 6.76zm0 0l-.003-.06c-.013-.309-.152-.709-.481-1.207-.326-.493-.819-1.051-1.488-1.67l-.006-.005c-.167-.147-.72-.656-.924-.902l-.005-.005-.004-.006c-.149-.19-.258-.415-.244-.684.012-.241.122-.441.204-.578.211-.354.616-.871 1.013-1.38l.027-.034c.67-.857 1.196-1.553 1.536-2.132.35-.598.43-.958.384-1.18l-.01 9.843zm-12.434-9.967l.067-.056c.083-.07.388-.295 1.966-.28l-2.033.336zm0 0l.1.032c.218.07.472.178.655.451.158.235.223.539.273.874m-1.028-1.357l1.028 1.357m0 0c.071.476.107 1.253.032 1.953-.055.506-.15.841-.254 1.067a1.285 1.285 0 0 1-.162.27.826.826 0 0 1-.131.13l-.008.005-.207.154-.245-.08c-.248-.08-.68-.395-1.302-1.647l2.277-1.852zm11.403-1.285l.011.051-.01-.05zm0 0l-4.145.002a9.673 9.673 0 0 1-.183.49 16.262 16.262 0 0 1-1.112 2.21c-.405.683-.748 1.146-1.025 1.455-.264.295-.5.488-.7.568l-.16.065-.166-.048-.028-.008-.145-.042-.097-.114c-.157-.184-.276-.493-.322-1.02-.048-.545-.006-1.189.03-1.764l.002-.022c.046-.725.075-1.242.001-1.588l-.082-.387a6.345 6.345 0 0 0-.375-.07c-.391-.062-.992-.126-1.89-.135l10.397.409zm-2.496 9.779h-.506a3.497 3.497 0 0 1-.562-.05c-.163-.027-.387-.072-.531-.142-.536-.26-.903-.692-1.238-1.086l-.03-.034c-.316-.373-.603-.706-.995-.985-.28-.198-.51-.242-.67-.242a.83.83 0 0 0-.174.018c-.171.037-.483.16-.756.652a3.355 3.355 0 0 0-.263.562 3.29 3.29 0 0 0-.155.83l-.037.488-.489-.027c-2.33-.126-4.169-1.013-5.706-2.744-1.407-1.583-2.492-3.772-3.616-6.472l-.288-.692h3.332l.121.325.104.28.016.043c.295.802.688 1.866 1.146 2.767.33.646.624 1.071.894 1.33.26.249.474.325.67.325.21 0 .396-.08.552-.251.238-.261.431-.76.497-1.65a8.7 8.7 0 0 0-.052-1.748l8.736 8.503zm0 0h2.458l-.375-.729c-.249-.483-.74-1.145-1.692-2.025l-.009-.008c-.133-.117-.717-.65-.939-.917l-.002-.003-.001-.002c-.174-.219-.254-.425-.266-.624-.013-.2.04-.44.214-.732.212-.354.582-.83 1.047-1.425l.093-.119c.512-.653 1.282-1.638 1.629-2.364l.34-.714-.79-.001c-.24 0-2.273-.003-2.87-.002l-.338.001-.126.313a18.594 18.594 0 0 1-1.212 2.405c-.782 1.298-1.337 1.774-1.655 1.948a.743.743 0 0 1-.306.103.711.711 0 0 1-.093 0l-.05-.002-.256-.074a.708.708 0 0 1-.13-.087c-.226-.198-.37-.546-.425-1.096-.055-.543-.016-1.178.027-1.858v-.006c.018-.272.037-.561.043-.82a3.502 3.502 0 0 0-.035-.717l-.068-.352-.355-.049a15.438 15.438 0 0 0-2.41-.106l-.806.034.39.707c.124.227.185.498.232.818l8.736 8.503zM23.4 12.445z" fill="#828282" stroke="#44220F"/></g><defs><clipPath id="a"><path fill="#fff" transform="translate(8 8)" d="M0 0h20v19H0z"/></clipPath></defs></svg>