<svg width="64" height="65" fill="none" xmlns="http://www.w3.org/2000/svg"><path d="M48.08 48.394l-2.062-1.374-1.145 1.715 4.124 2.75 6.673-15.571-1.894-.812-5.697 13.292z" fill="url(#paint0_linear)"/><path d="M62.97 35.508c-3.978 0-7.216-3.238-7.216-7.216v-1.03H45.446V.46H11.003L.09 11.373v48.874h41.59a24.858 24.858 0 0 0 6.45 4.04l.407.174.406-.174A24.812 24.812 0 0 0 64 41.454v-5.946h-1.03zM10.398 3.98v6.789h-6.79L10.4 3.98zm-8.247 8.85H12.46V2.522h30.924v24.74h-2.062v1.03c0 3.978-3.237 7.216-7.215 7.216h-1.03v5.947a24.805 24.805 0 0 0 6.484 16.73H2.152V12.83zm59.786 28.625a22.753 22.753 0 0 1-13.4 20.759 22.752 22.752 0 0 1-13.4-20.76v-3.941a9.293 9.293 0 0 0 8.188-8.189H53.75a9.293 9.293 0 0 0 8.188 8.189v3.942h.001z" fill="url(#paint1_linear)"/><path d="M8.337 21.077h22.678v2.061H8.337v-2.061z" fill="url(#paint2_linear)"/><path d="M4.214 21.077h2.061v2.061H4.214v-2.061z" fill="url(#paint3_linear)"/><path d="M4.214 25.2h26.8v2.061h-26.8V25.2z" fill="url(#paint4_linear)"/><path d="M4.214 29.323h26.8v2.062h-26.8v-2.062z" fill="url(#paint5_linear)"/><path d="M4.214 33.446h26.8v2.062h-26.8v-2.062z" fill="url(#paint6_linear)"/><defs><linearGradient id="paint0_linear" x1="55.67" y1="21.996" x2="44.836" y2="22.005" gradientUnits="userSpaceOnUse"><stop stop-color="#F59E27"/><stop offset="1" stop-color="#FC5829"/></linearGradient><linearGradient id="paint1_linear" x1="64" y1="-50.739" x2="-.131" y2="-50.659" gradientUnits="userSpaceOnUse"><stop stop-color="#F59E27"/><stop offset="1" stop-color="#FC5829"/></linearGradient><linearGradient id="paint2_linear" x1="31.015" y1="19.427" x2="8.263" y2="19.743" gradientUnits="userSpaceOnUse"><stop stop-color="#F59E27"/><stop offset="1" stop-color="#FC5829"/></linearGradient><linearGradient id="paint3_linear" x1="6.275" y1="19.427" x2="4.207" y2="19.43" gradientUnits="userSpaceOnUse"><stop stop-color="#F59E27"/><stop offset="1" stop-color="#FC5829"/></linearGradient><linearGradient id="paint4_linear" x1="31.015" y1="23.551" x2="4.128" y2="23.991" gradientUnits="userSpaceOnUse"><stop stop-color="#F59E27"/><stop offset="1" stop-color="#FC5829"/></linearGradient><linearGradient id="paint5_linear" x1="31.015" y1="27.674" x2="4.128" y2="28.114" gradientUnits="userSpaceOnUse"><stop stop-color="#F59E27"/><stop offset="1" stop-color="#FC5829"/></linearGradient><linearGradient id="paint6_linear" x1="31.015" y1="31.797" x2="4.128" y2="32.237" gradientUnits="userSpaceOnUse"><stop stop-color="#F59E27"/><stop offset="1" stop-color="#FC5829"/></linearGradient></defs></svg>