<svg width="69" height="69" fill="none" xmlns="http://www.w3.org/2000/svg"><path d="M67.84 40.015c-.953-1.333-2.542-2.229-4.146-2.338-1.31-.088-2.496.354-3.34 1.248a58.56 58.56 0 0 0-.597.642c-.933-.856-2.157-1.406-3.39-1.49-1.31-.089-2.497.354-3.34 1.247-1.838 1.945-5.091 5.744-7.646 8.768a5.293 5.293 0 0 0-1.067-.481c-1.221-.526-18.055-7.715-25.516-7.715-12.054 0-17.591 6.478-17.821 6.754a.998.998 0 0 0 1.533 1.282c.013-.015 1.307-1.53 3.95-3.022 2.435-1.376 6.552-3.016 12.338-3.016 7.168 0 24.595 7.496 24.77 7.572.032.013.065.026.099.036.832.26 1.513.828 1.918 1.6.405.772.485 1.656.225 2.488a3.29 3.29 0 0 1-1.505 1.867c-.798.452-1.74.507-2.616.267l-10.902-3.002a1 1 0 0 0-.53 1.926l10.887 2.999c2.146.662 4.548-.15 5.845-1.984a5.295 5.295 0 0 0 .963-2.808l2.925-.308a1 1 0 0 0 .663-.354c.072-.087 7.242-8.695 10.267-11.896 1.257-1.331 3.501-.388 4.409.88 1.396 1.95-.339 4.08-.904 4.686-2.776 2.978-7.866 9.114-8.78 10.22L35.814 66.44l-19.827-8.348a.997.997 0 0 0-.388-.079H1.745a1 1 0 0 0 0 1.999h13.653l20.065 8.448a.997.997 0 0 0 .835-.027l21.316-10.658a.998.998 0 0 0 .324-.258c.058-.07 5.884-7.126 8.836-10.293 2.173-2.33 2.582-5.094 1.067-7.21zM50.265 50.602l-2.603.274a5.335 5.335 0 0 0-.786-1.454c2.176-2.576 5.712-6.722 7.604-8.725.547-.579 1.255-.66 1.752-.626.783.053 1.586.422 2.19.981-2.998 3.385-7.08 8.26-8.157 9.55z" fill="url(#paint0_linear)"/><path d="M57.167 20.711h-8.593V9.387a1 1 0 1 0-1.998 0V21.71a1 1 0 0 0 .999 1h6.891L34.785 39.58 15.104 22.71h6.891a1 1 0 0 0 1-1V2.46h23.58v2.33a1 1 0 0 0 2 0V1.46a1 1 0 0 0-1-1h-25.58a1 1 0 0 0-.999 1v19.251h-8.593c-.906 0-1.34 1.167-.65 1.758l22.382 19.185c.37.317.93.317 1.3 0l22.382-19.185c.69-.591.256-1.758-.65-1.758z" fill="url(#paint1_linear)"/><path d="M41.886 7.148a1 1 0 0 0-1.413 0l-12.79 12.79c-.615.616-.167 1.706.707 1.706a.995.995 0 0 0 .706-.293l12.79-12.79a.999.999 0 0 0 0-1.413z" fill="url(#paint2_linear)"/><path d="M40.114 15.382a3.134 3.134 0 0 0-3.13 3.131 3.134 3.134 0 0 0 3.13 3.13 3.135 3.135 0 0 0 3.13-3.13 3.134 3.134 0 0 0-3.13-3.13zm0 4.263a1.134 1.134 0 0 1 0-2.264 1.134 1.134 0 0 1 0 2.264z" fill="url(#paint3_linear)"/><path d="M29.456 6.856a3.134 3.134 0 0 0-3.131 3.13 3.134 3.134 0 0 0 3.13 3.131 3.135 3.135 0 0 0 3.132-3.13 3.134 3.134 0 0 0-3.131-3.131zm0 4.263a1.134 1.134 0 0 1 0-2.265 1.134 1.134 0 0 1 0 2.265z" fill="url(#paint4_linear)"/><defs><linearGradient id="paint0_linear" x1="68.746" y1="12.967" x2=".51" y2="13.157" gradientUnits="userSpaceOnUse"><stop stop-color="#F59E27"/><stop offset="1" stop-color="#FC5829"/></linearGradient><linearGradient id="paint1_linear" x1="58.157" y1="-32.684" x2="11.251" y2="-32.617" gradientUnits="userSpaceOnUse"><stop stop-color="#F59E27"/><stop offset="1" stop-color="#FC5829"/></linearGradient><linearGradient id="paint2_linear" x1="42.179" y1="-4.975" x2="27.347" y2="-4.956" gradientUnits="userSpaceOnUse"><stop stop-color="#F59E27"/><stop offset="1" stop-color="#FC5829"/></linearGradient><linearGradient id="paint3_linear" x1="43.245" y1="10.373" x2="36.962" y2="10.381" gradientUnits="userSpaceOnUse"><stop stop-color="#F59E27"/><stop offset="1" stop-color="#FC5829"/></linearGradient><linearGradient id="paint4_linear" x1="32.587" y1="1.846" x2="26.303" y2="1.854" gradientUnits="userSpaceOnUse"><stop stop-color="#F59E27"/><stop offset="1" stop-color="#FC5829"/></linearGradient></defs></svg>